<?xml version="1.0" encoding="UTF-8" standalone="no"?>
<svg
   xmlns:dc="http://purl.org/dc/elements/1.1/"
   xmlns:cc="http://creativecommons.org/ns#"
   xmlns:rdf="http://www.w3.org/1999/02/22-rdf-syntax-ns#"
   xmlns:svg="http://www.w3.org/2000/svg"
   xmlns="http://www.w3.org/2000/svg"
   xmlns:sodipodi="http://sodipodi.sourceforge.net/DTD/sodipodi-0.dtd"
   xmlns:inkscape="http://www.inkscape.org/namespaces/inkscape"
   id="icon-apple"
   viewBox="0 0 32 32"
   version="1.1"
   sodipodi:docname="apple.svg"
   inkscape:version="0.92.3 (2405546, 2018-03-11)">
  <metadata
     id="metadata128">
    <rdf:RDF>
      <cc:Work
         rdf:about="">
        <dc:format>image/svg+xml</dc:format>
        <dc:type
           rdf:resource="http://purl.org/dc/dcmitype/StillImage" />
        <dc:title>apple</dc:title>
      </cc:Work>
    </rdf:RDF>
  </metadata>
  <defs
     id="defs126" />
  <sodipodi:namedview
     pagecolor="#ffffff"
     bordercolor="#666666"
     borderopacity="1"
     objecttolerance="10"
     gridtolerance="10"
     guidetolerance="10"
     inkscape:pageopacity="0"
     inkscape:pageshadow="2"
     inkscape:window-width="1920"
     inkscape:window-height="1025"
     id="namedview124"
     showgrid="false"
     inkscape:zoom="26.375"
     inkscape:cx="16"
     inkscape:cy="16"
     inkscape:window-x="0"
     inkscape:window-y="27"
     inkscape:window-maximized="1"
     inkscape:current-layer="icon-apple" />
  <title
     id="title97">apple</title>
  <path
     class="path1"
     fill="#f46c51"
     d="M31.649 9.096c-0.682-2.763-2.373-5.622-6.071-6.907-5.411-1.881-8.724 0.763-9.578 1.577-0.854-0.814-4.167-3.458-9.578-1.577-3.697 1.285-5.389 4.144-6.071 6.907-0.587 2.377-0.42 4.892 0.362 7.204 1.854 5.483 7.587 19.623 15.287 11.933 7.7 7.69 13.433-6.45 15.287-11.933 0.782-2.312 0.948-4.827 0.361-7.204z"
     id="path99" />
  <path
     class="path2"
     fill="#ffe388"
     d="M29.472 9.529c-0.635-2.416-1.689-4.28-4.118-5.387-4.263-1.943-8.559 0.904-9.354 1.615v0c-0.795-0.712-5.091-3.349-9.354-1.406-2.429 1.107-3.483 2.971-4.118 5.387-0.546 2.078-0.391 4.277 0.337 6.298 1.726 4.793 6.214 17.29 13.136 10.112v-0.209c6.891 7.565 11.409-5.319 13.136-10.112 0.728-2.021 0.883-4.22 0.337-6.298z"
     id="path101" />
  <path
     class="path3"
     fill="#a05f32"
     d="M15.374 16.285c0 1.132-0.561 2.049-1.252 2.049s-1.252-0.917-1.252-2.049c0-1.132 0.561-2.049 1.252-2.049s1.252 0.917 1.252 2.049z"
     id="path103" />
  <path
     class="path4"
     fill="#a05f32"
     d="M19.444 16.285c0 1.132-0.561 2.049-1.252 2.049s-1.252-0.917-1.252-2.049c0-1.132 0.561-2.049 1.252-2.049s1.252 0.917 1.252 2.049z"
     id="path105" />
  <path
     class="path5"
     fill="#fff"
     opacity="0.3"
     d="M29.197 6.039c0 0.986-0.8 1.786-1.786 1.786s-1.786-0.8-1.786-1.786c0-0.986 0.8-1.786 1.786-1.786s1.786 0.8 1.786 1.786z"
     id="path107" />
  <path
     class="path6"
     fill="#fff"
     opacity="0.3"
     d="M30.424 9.878c0 0.493-0.4 0.893-0.893 0.893s-0.893-0.4-0.893-0.893c0-0.493 0.4-0.893 0.893-0.893s0.893 0.4 0.893 0.893z"
     id="path109" />
  <path
     class="path7"
     fill="#d3966c"
     d="M19.119 15.526c0 0.419-0.208 0.759-0.464 0.759s-0.464-0.34-0.464-0.759c0-0.419 0.208-0.759 0.464-0.759s0.464 0.34 0.464 0.759z"
     id="path111" />
  <path
     class="path8"
     fill="#d3966c"
     d="M15.051 15.526c0 0.419-0.208 0.759-0.464 0.759s-0.464-0.34-0.464-0.759c0-0.419 0.208-0.759 0.464-0.759s0.464 0.34 0.464 0.759z"
     id="path113" />
  <path
     class="path9"
     fill="#f46c51"
     d="M16 26.148c-0.871 0.925-1.705 1.508-2.494 1.834 0.924-0.050 1.926-0.432 2.991-1.304-0.328-0.313-0.496-0.53-0.496-0.53z"
     id="path115" />
  <path
     class="path10"
     fill="#000"
     opacity="0.1"
     d="M7.26 22.821c-5.169-8.491-3.346-13.199-3.346-13.199 1.346-4.775 4.901-6.191 8.021-6.445-3.372-0.057-7.856 0.997-9.408 6.562 0 0-1.822 4.762 3.346 13.349 0 0 3.074 6.773 7.632 4.896-3.784 0.203-6.245-5.161-6.245-5.161z"
     id="path117" />
  <path
     class="path11"
     fill="#000"
     opacity="0.2"
     d="M16.496 26.678c-1.065 0.872-2.067 1.254-2.991 1.304-4.558 1.878-7.632-4.895-7.632-4.895-5.169-8.587-3.346-13.349-3.346-13.349 1.552-5.565 6.036-6.619 9.408-6.562 1.324-0.108 2.57-0.006 3.535 0.136-1.335-1.036-4.425-2.731-9.048-1.124-3.697 1.285-5.389 4.144-6.071 6.907-0.587 2.377-0.42 4.892 0.362 7.204 1.854 5.483 7.587 19.623 15.287 11.933 3.193 3.189 6.047 2.622 8.428 0.477-4.173 0.958-6.879-1.031-7.931-2.033z"
     id="path119" />
  <path
     class="path12"
     fill="#f46c51"
     d="M11.935 3.176c2.288 0.039 4.065 0.589 4.065 0.589-0.124-0.118-0.302-0.276-0.53-0.453-0.965-0.143-2.211-0.244-3.535-0.136z"
     id="path121" />
</svg>
