<?xml version="1.0" encoding="UTF-8" standalone="no"?>
<svg
   xmlns:dc="http://purl.org/dc/elements/1.1/"
   xmlns:cc="http://creativecommons.org/ns#"
   xmlns:rdf="http://www.w3.org/1999/02/22-rdf-syntax-ns#"
   xmlns:svg="http://www.w3.org/2000/svg"
   xmlns="http://www.w3.org/2000/svg"
   xmlns:sodipodi="http://sodipodi.sourceforge.net/DTD/sodipodi-0.dtd"
   xmlns:inkscape="http://www.inkscape.org/namespaces/inkscape"
   id="icon-bananas"
   viewBox="0 0 32 32"
   version="1.1"
   sodipodi:docname="bananas.svg"
   inkscape:version="0.92.3 (2405546, 2018-03-11)">
  <metadata
     id="metadata4061">
    <rdf:RDF>
      <cc:Work
         rdf:about="">
        <dc:format>image/svg+xml</dc:format>
        <dc:type
           rdf:resource="http://purl.org/dc/dcmitype/StillImage" />
        <dc:title>bananas</dc:title>
      </cc:Work>
    </rdf:RDF>
  </metadata>
  <defs
     id="defs4059" />
  <sodipodi:namedview
     pagecolor="#ffffff"
     bordercolor="#666666"
     borderopacity="1"
     objecttolerance="10"
     gridtolerance="10"
     guidetolerance="10"
     inkscape:pageopacity="0"
     inkscape:pageshadow="2"
     inkscape:window-width="807"
     inkscape:window-height="480"
     id="namedview4057"
     showgrid="false"
     inkscape:zoom="7.375"
     inkscape:cx="16"
     inkscape:cy="16"
     inkscape:window-x="186"
     inkscape:window-y="161"
     inkscape:window-maximized="0"
     inkscape:current-layer="icon-bananas" />
  <title
     id="title4032">bananas</title>
  <path
     class="path1"
     fill="#ffb95c"
     d="M27.686 21.643l-0.51 0.669 0.328 1.156c0 0-6.446 3.703-13.905-5.151 0 0-5.733-7.852-0.485-15.248 0.625-0.881 1.466-1.604 2.475-1.99 0.575-0.22 1.255-0.363 1.987-0.282l0.879 1.425-0.398 2.1c-0.089 0.468-0.219 0.926-0.387 1.372-0.509 1.346-1.553 4.852-0.069 7.965 2.036 4.27 7.113 6.928 10.086 7.984z"
     id="path4034" />
  <path
     class="path2"
     fill="#fcad2d"
     d="M15.589 1.080c0.575-0.22 1.255-0.363 1.987-0.282l0.879 1.425c-0.787 2.074-4.291 7.746-2.575 11.713 2.69 6.219 8.504 7.801 11.373 8.278l-0.076 0.099 0.328 1.156c0 0-6.446 3.703-13.905-5.151 0 0-5.733-7.852-0.485-15.248 0.625-0.881 1.466-1.604 2.475-1.99z"
     id="path4036" />
  <path
     class="path3"
     fill="#965b2f"
     d="M27.686 21.643l0.43 0.328-0.123 1.153-0.489 0.345-0.328-1.156z"
     id="path4038" />
  <path
     class="path4"
     fill="#ffb95c"
     d="M25.217 27.563l-0.75 0.664 0.116 1.427c0 0-8.386 2.834-15.052-9.233 0 0-4.881-10.498 2.959-17.924 0.934-0.885 2.083-1.534 3.351-1.752 0.723-0.124 1.55-0.134 2.386 0.13l0.697 1.868-0.95 2.361c-0.212 0.527-0.47 1.031-0.77 1.513-0.906 1.455-2.936 5.309-1.922 9.288 1.391 5.459 6.707 9.737 9.936 11.658z"
     id="path4040" />
  <path
     class="path5"
     fill="#fcad2d"
     d="M15.841 0.745c0.723-0.124 1.55-0.134 2.386 0.13l0.697 1.868c-1.398 2.241-6.803 8.057-5.716 13.087 1.704 7.886 8.13 11.079 11.371 12.299l-0.112 0.099 0.116 1.427c0 0-8.386 2.834-15.052-9.233 0 0-4.881-10.498 2.959-17.924 0.934-0.885 2.084-1.534 3.351-1.752z"
     id="path4042" />
  <path
     class="path6"
     fill="#965b2f"
     d="M25.217 27.563l0.427 0.482-0.41 1.318-0.651 0.29-0.116-1.427z"
     id="path4044" />
  <path
     class="path7"
     fill="#ffb95c"
     d="M17.691 30.087l-0.94 0.451-0.29 1.461c0 0-9.199 0.449-12.434-13.525 0 0-1.895-11.895 8.064-17.094 1.186-0.619 2.522-0.942 3.852-0.799 0.759 0.081 1.59 0.307 2.351 0.809l0.166 2.067-1.623 2.092c-0.362 0.467-0.764 0.898-1.201 1.295-1.321 1.198-4.449 4.477-4.568 8.747-0.162 5.859 3.939 11.654 6.623 14.495z"
     id="path4046" />
  <path
     class="path8"
     fill="#fcad2d"
     d="M15.944 0.58c0.759 0.081 1.589 0.307 2.35 0.809l0.109 1.354c-4.219 1.845-9.248 5.448-9.389 12.181-0.175 8.392 4.982 13.402 7.877 15.546l-0.14 0.067-0.29 1.461c0 0-9.199 0.449-12.434-13.525 0 0-1.895-11.895 8.064-17.094 1.186-0.62 2.522-0.942 3.852-0.8z"
     id="path4048" />
  <path
     class="path9"
     fill="#965b2f"
     d="M17.691 30.087l0.29 0.604-0.786 1.203-0.735 0.105 0.29-1.461z"
     id="path4050" />
  <path
     class="path10"
     fill="#a9b135"
     d="M18.461 3.457l-0.057-0.713-0.187-1.921 2.716-0.822 1.323 2.269-3.387 1.676z"
     id="path4052" />
  <path
     class="path11"
     fill="#bec142"
     d="M18.403 2.743l3.366-1.307 0.486 0.833-3.387 1.676-0.408-0.489z"
     id="path4054" />
</svg>
