<?xml version="1.0" encoding="UTF-8" standalone="no"?>
<svg
   xmlns:dc="http://purl.org/dc/elements/1.1/"
   xmlns:cc="http://creativecommons.org/ns#"
   xmlns:rdf="http://www.w3.org/1999/02/22-rdf-syntax-ns#"
   xmlns:svg="http://www.w3.org/2000/svg"
   xmlns="http://www.w3.org/2000/svg"
   xmlns:sodipodi="http://sodipodi.sourceforge.net/DTD/sodipodi-0.dtd"
   xmlns:inkscape="http://www.inkscape.org/namespaces/inkscape"
   id="icon-grapes"
   viewBox="0 0 32 32"
   version="1.1"
   sodipodi:docname="grapes.svg"
   inkscape:version="0.92.3 (2405546, 2018-03-11)">
  <metadata
     id="metadata4793">
    <rdf:RDF>
      <cc:Work
         rdf:about="">
        <dc:format>image/svg+xml</dc:format>
        <dc:type
           rdf:resource="http://purl.org/dc/dcmitype/StillImage" />
        <dc:title>grapes</dc:title>
      </cc:Work>
    </rdf:RDF>
  </metadata>
  <defs
     id="defs4791" />
  <sodipodi:namedview
     pagecolor="#ffffff"
     bordercolor="#666666"
     borderopacity="1"
     objecttolerance="10"
     gridtolerance="10"
     guidetolerance="10"
     inkscape:pageopacity="0"
     inkscape:pageshadow="2"
     inkscape:window-width="807"
     inkscape:window-height="480"
     id="namedview4789"
     showgrid="false"
     inkscape:zoom="7.375"
     inkscape:cx="16"
     inkscape:cy="16"
     inkscape:window-x="0"
     inkscape:window-y="27"
     inkscape:window-maximized="0"
     inkscape:current-layer="icon-grapes" />
  <title
     id="title4716">grapes</title>
  <path
     class="path1"
     fill="#773a6f"
     d="M24.277 9.479c0 1.708-1.384 3.092-3.092 3.092s-3.092-1.384-3.092-3.092c0-1.708 1.384-3.092 3.092-3.092s3.092 1.384 3.092 3.092z"
     id="path4718" />
  <path
     class="path2"
     fill="#773a6f"
     d="M26.33 12.571c0 1.708-1.384 3.092-3.092 3.092s-3.092-1.384-3.092-3.092c0-1.708 1.384-3.092 3.092-3.092s3.092 1.384 3.092 3.092z"
     id="path4720" />
  <path
     class="path3"
     fill="#773a6f"
     d="M13.74 12.571c0 1.708-1.384 3.092-3.092 3.092s-3.092-1.384-3.092-3.092c0-1.708 1.384-3.092 3.092-3.092s3.092 1.384 3.092 3.092z"
     id="path4722" />
  <path
     class="path4"
     fill="#773a6f"
     d="M12.34 8.997c0 1.708-1.384 3.092-3.092 3.092s-3.092-1.384-3.092-3.092c0-1.708 1.384-3.092 3.092-3.092s3.092 1.384 3.092 3.092z"
     id="path4724" />
  <path
     class="path5"
     fill="#773a6f"
     d="M19.426 11.033c0 2.083-1.689 3.772-3.772 3.772s-3.772-1.689-3.772-3.772c0-2.083 1.689-3.772 3.772-3.772s3.772 1.689 3.772 3.772z"
     id="path4726" />
  <path
     class="path6"
     fill="#773a6f"
     d="M15.646 15.663c0 1.708-1.384 3.092-3.092 3.092s-3.092-1.384-3.092-3.092c0-1.708 1.384-3.092 3.092-3.092s3.092 1.384 3.092 3.092z"
     id="path4728" />
  <path
     class="path7"
     fill="#773a6f"
     d="M22.471 14.928c0 1.708-1.384 3.092-3.092 3.092s-3.092-1.384-3.092-3.092c0-1.708 1.384-3.092 3.092-3.092s3.092 1.384 3.092 3.092z"
     id="path4730" />
  <path
     class="path8"
     fill="#773a6f"
     d="M16.563 20.122c0 1.708-1.384 3.092-3.092 3.092s-3.092-1.384-3.092-3.092c0-1.708 1.384-3.092 3.092-3.092s3.092 1.384 3.092 3.092z"
     id="path4732" />
  <path
     class="path9"
     fill="#773a6f"
     d="M21.784 19.778c0 1.708-1.384 3.092-3.092 3.092s-3.092-1.384-3.092-3.092c0-1.708 1.384-3.092 3.092-3.092s3.092 1.384 3.092 3.092z"
     id="path4734" />
  <path
     class="path10"
     fill="#773a6f"
     d="M19.379 24.705c0 1.708-1.384 3.092-3.092 3.092s-3.092-1.384-3.092-3.092c0-1.708 1.384-3.092 3.092-3.092s3.092 1.384 3.092 3.092z"
     id="path4736" />
  <path
     class="path11"
     fill="#87487b"
     d="M9.247 11.713c0 1.708-1.384 3.092-3.092 3.092s-3.092-1.384-3.092-3.092c0-1.708 1.384-3.092 3.092-3.092s3.092 1.384 3.092 3.092z"
     id="path4738" />
  <path
     class="path12"
     fill="#87487b"
     d="M15.646 11.713c0 1.708-1.384 3.092-3.092 3.092s-3.092-1.384-3.092-3.092c0-1.708 1.384-3.092 3.092-3.092s3.092 1.384 3.092 3.092z"
     id="path4740" />
  <path
     class="path13"
     fill="#87487b"
     d="M22.314 11.713c0 1.708-1.384 3.092-3.092 3.092s-3.092-1.384-3.092-3.092c0-1.708 1.384-3.092 3.092-3.092s3.092 1.384 3.092 3.092z"
     id="path4742" />
  <path
     class="path14"
     fill="#87487b"
     d="M28.937 11.713c0 1.708-1.384 3.092-3.092 3.092s-3.092-1.384-3.092-3.092c0-1.708 1.384-3.092 3.092-3.092s3.092 1.384 3.092 3.092z"
     id="path4744" />
  <path
     class="path15"
     fill="#87487b"
     d="M12.943 17.515c0 1.708-1.384 3.092-3.092 3.092s-3.092-1.384-3.092-3.092c0-1.708 1.384-3.092 3.092-3.092s3.092 1.384 3.092 3.092z"
     id="path4746" />
  <path
     class="path16"
     fill="#87487b"
     d="M19.221 17.515c0 1.708-1.384 3.092-3.092 3.092s-3.092-1.384-3.092-3.092c0-1.708 1.384-3.092 3.092-3.092s3.092 1.384 3.092 3.092z"
     id="path4748" />
  <path
     class="path17"
     fill="#87487b"
     d="M25.564 17.030c0 1.708-1.384 3.092-3.092 3.092s-3.092-1.384-3.092-3.092c0-1.708 1.384-3.092 3.092-3.092s3.092 1.384 3.092 3.092z"
     id="path4750" />
  <path
     class="path18"
     fill="#87487b"
     d="M15.78 23.214c0 1.708-1.384 3.092-3.092 3.092s-3.092-1.384-3.092-3.092c0-1.708 1.384-3.092 3.092-3.092s3.092 1.384 3.092 3.092z"
     id="path4752" />
  <path
     class="path19"
     fill="#87487b"
     d="M22.471 23.7c0 1.708-1.384 3.092-3.092 3.092s-3.092-1.384-3.092-3.092c0-1.708 1.384-3.092 3.092-3.092s3.092 1.384 3.092 3.092z"
     id="path4754" />
  <path
     class="path20"
     fill="#87487b"
     d="M19.096 28.908c0 1.708-1.384 3.092-3.092 3.092s-3.092-1.384-3.092-3.092c0-1.708 1.384-3.092 3.092-3.092s3.092 1.384 3.092 3.092z"
     id="path4756" />
  <path
     class="path21"
     fill="#fff"
     opacity="0.2"
     d="M18.218 16.202c0 0.457-0.37 0.828-0.828 0.828s-0.828-0.37-0.828-0.828c0-0.457 0.37-0.828 0.828-0.828s0.828 0.37 0.828 0.828z"
     id="path4758" />
  <path
     class="path22"
     fill="#fff"
     opacity="0.2"
     d="M14.567 22.042c0 0.457-0.37 0.828-0.828 0.828s-0.828-0.37-0.828-0.828c0-0.457 0.37-0.828 0.828-0.828s0.828 0.37 0.828 0.828z"
     id="path4760" />
  <path
     class="path23"
     fill="#fff"
     opacity="0.2"
     d="M21.345 22.3c0 0.457-0.37 0.828-0.828 0.828s-0.828-0.37-0.828-0.828c0-0.457 0.37-0.828 0.828-0.828s0.828 0.37 0.828 0.828z"
     id="path4762" />
  <path
     class="path24"
     fill="#fff"
     opacity="0.2"
     d="M17.694 28.14c0 0.457-0.37 0.828-0.828 0.828s-0.828-0.37-0.828-0.828c0-0.457 0.37-0.828 0.828-0.828s0.828 0.37 0.828 0.828z"
     id="path4764" />
  <path
     class="path25"
     fill="#fff"
     opacity="0.2"
     d="M27.325 10.341c0 0.457-0.37 0.828-0.828 0.828s-0.828-0.37-0.828-0.828c0-0.457 0.37-0.828 0.828-0.828s0.828 0.37 0.828 0.828z"
     id="path4766" />
  <path
     class="path26"
     fill="#fff"
     opacity="0.2"
     d="M23.674 16.181c0 0.457-0.37 0.828-0.828 0.828s-0.828-0.37-0.828-0.828c0-0.457 0.37-0.828 0.828-0.828s0.828 0.37 0.828 0.828z"
     id="path4768" />
  <path
     class="path27"
     fill="#fff"
     opacity="0.2"
     d="M14.535 10.341c0 0.457-0.37 0.828-0.828 0.828s-0.828-0.37-0.828-0.828c0-0.457 0.37-0.828 0.828-0.828s0.828 0.37 0.828 0.828z"
     id="path4770" />
  <path
     class="path28"
     fill="#fff"
     opacity="0.2"
     d="M10.882 16.181c0 0.457-0.37 0.828-0.828 0.828s-0.828-0.37-0.828-0.828c0-0.457 0.37-0.828 0.828-0.828s0.828 0.37 0.828 0.828z"
     id="path4772" />
  <path
     class="path29"
     fill="#fff"
     opacity="0.2"
     d="M21.345 10.341c0 0.457-0.37 0.828-0.828 0.828s-0.828-0.37-0.828-0.828c0-0.457 0.37-0.828 0.828-0.828s0.828 0.37 0.828 0.828z"
     id="path4774" />
  <path
     class="path30"
     fill="#fff"
     opacity="0.2"
     d="M7.586 10.26c0 0.457-0.371 0.828-0.828 0.828s-0.828-0.371-0.828-0.828c0-0.457 0.371-0.828 0.828-0.828s0.828 0.371 0.828 0.828z"
     id="path4776" />
  <path
     class="path31"
     fill="#ada323"
     d="M16.016 8.305l0.886-7.306c0.065-0.532-0.351-1-0.886-1v0c-0.535 0-0.951 0.468-0.886 1l0.886 7.306z"
     id="path4778" />
  <path
     class="path32"
     fill="#ada323"
     d="M16.016 8.305c0 0 3.362-1.253 7.038 0.18s5.279-3.588 5.279-3.588-1.704 1.975-4.298 0.853c0 0-5.268-3.868-8.019 2.554z"
     id="path4780" />
  <path
     class="path33"
     fill="#ada323"
     d="M15.723 8.305c0 0-3.362-1.253-7.038 0.18s-5.279-3.588-5.279-3.588 1.704 1.975 4.298 0.853c0 0 5.268-3.868 8.019 2.554z"
     id="path4782" />
  <path
     class="path34"
     fill="#bcaf33"
     d="M16.016 8.305c0 0-8.873-4.431-6.13 4.955 0 0 1.528-5.604 6.13-4.955z"
     id="path4784" />
  <path
     class="path35"
     fill="#bcaf33"
     d="M15.364 8.305c0 0 8.873-4.431 6.13 4.955 0 0-1.528-5.604-6.13-4.955z"
     id="path4786" />
</svg>
