<?xml version="1.0" encoding="UTF-8" standalone="no"?>
<svg
   xmlns:dc="http://purl.org/dc/elements/1.1/"
   xmlns:cc="http://creativecommons.org/ns#"
   xmlns:rdf="http://www.w3.org/1999/02/22-rdf-syntax-ns#"
   xmlns:svg="http://www.w3.org/2000/svg"
   xmlns="http://www.w3.org/2000/svg"
   xmlns:sodipodi="http://sodipodi.sourceforge.net/DTD/sodipodi-0.dtd"
   xmlns:inkscape="http://www.inkscape.org/namespaces/inkscape"
   id="icon-kiwi"
   viewBox="0 0 32 32"
   version="1.1"
   sodipodi:docname="kiwi.svg"
   inkscape:version="0.92.3 (2405546, 2018-03-11)">
  <metadata
     id="metadata5071">
    <rdf:RDF>
      <cc:Work
         rdf:about="">
        <dc:format>image/svg+xml</dc:format>
        <dc:type
           rdf:resource="http://purl.org/dc/dcmitype/StillImage" />
        <dc:title>kiwi</dc:title>
      </cc:Work>
    </rdf:RDF>
  </metadata>
  <defs
     id="defs5069" />
  <sodipodi:namedview
     pagecolor="#ffffff"
     bordercolor="#666666"
     borderopacity="1"
     objecttolerance="10"
     gridtolerance="10"
     guidetolerance="10"
     inkscape:pageopacity="0"
     inkscape:pageshadow="2"
     inkscape:window-width="807"
     inkscape:window-height="480"
     id="namedview5067"
     showgrid="false"
     inkscape:zoom="7.375"
     inkscape:cx="16"
     inkscape:cy="16"
     inkscape:window-x="0"
     inkscape:window-y="27"
     inkscape:window-maximized="0"
     inkscape:current-layer="icon-kiwi" />
  <title
     id="title5014">kiwi</title>
  <path
     class="path1"
     fill="#a05f32"
     d="M17.459 32h-2.918c-5.859 0-10.61-4.75-10.61-10.609v-9.309c0-5.859 4.75-10.609 10.61-10.609h2.918c5.859 0 10.609 4.75 10.609 10.609v9.309c0 5.859-4.75 10.609-10.609 10.609z"
     id="path5016" />
  <path
     class="path2"
     fill="#a05f32"
     d="M19.522 2.946h-7.045c0-1.627 1.319-2.946 2.946-2.946h1.153c1.627 0 2.946 1.319 2.946 2.946v0z"
     id="path5018" />
  <path
     class="path3"
     fill="#bfa32c"
     d="M17.335 29.761h-2.669c-4.492 0-8.134-3.642-8.134-8.134v-9.782c0-4.492 3.642-8.134 8.134-8.134h2.669c4.492 0 8.134 3.642 8.134 8.134v9.782c0 4.492-3.642 8.134-8.134 8.134z"
     id="path5020" />
  <path
     class="path4"
     fill="#875e42"
     d="M14.352 14.96c0 0.455-0.369 0.824-0.824 0.824s-0.824-0.369-0.824-0.824c0-0.455 0.369-0.824 0.824-0.824s0.824 0.369 0.824 0.824z"
     id="path5022" />
  <path
     class="path5"
     fill="#875e42"
     d="M20.346 15.369c0 0.455-0.369 0.824-0.824 0.824s-0.824-0.369-0.824-0.824c0-0.455 0.369-0.824 0.824-0.824s0.824 0.369 0.824 0.824z"
     id="path5024" />
  <path
     class="path6"
     fill="#875e42"
     d="M14.197 19.593c0 0.455-0.369 0.824-0.824 0.824s-0.824-0.369-0.824-0.824c0-0.455 0.369-0.824 0.824-0.824s0.824 0.369 0.824 0.824z"
     id="path5026" />
  <path
     class="path7"
     fill="#875e42"
     d="M19.45 16.737c0 0.455-0.369 0.824-0.824 0.824s-0.824-0.369-0.824-0.824c0-0.455 0.369-0.824 0.824-0.824s0.824 0.369 0.824 0.824z"
     id="path5028" />
  <path
     class="path8"
     fill="#875e42"
     d="M14.197 9.458c0 0.455-0.369 0.824-0.824 0.824s-0.824-0.369-0.824-0.824c0-0.455 0.369-0.824 0.824-0.824s0.824 0.369 0.824 0.824z"
     id="path5030" />
  <path
     class="path9"
     fill="#875e42"
     d="M13.529 11.55c0 0.455-0.369 0.824-0.824 0.824s-0.824-0.369-0.824-0.824c0-0.455 0.369-0.824 0.824-0.824s0.824 0.369 0.824 0.824z"
     id="path5032" />
  <path
     class="path10"
     fill="#875e42"
     d="M19.525 20.208c0 0.455-0.369 0.824-0.824 0.824s-0.824-0.369-0.824-0.824c0-0.455 0.369-0.824 0.824-0.824s0.824 0.369 0.824 0.824z"
     id="path5034" />
  <path
     class="path11"
     fill="#875e42"
     d="M15.021 25.634c0 0.455-0.369 0.824-0.824 0.824s-0.824-0.369-0.824-0.824c0-0.455 0.369-0.824 0.824-0.824s0.824 0.369 0.824 0.824z"
     id="path5036" />
  <path
     class="path12"
     fill="#875e42"
     d="M14.352 23.045c0 0.455-0.369 0.824-0.824 0.824s-0.824-0.369-0.824-0.824c0-0.455 0.369-0.824 0.824-0.824s0.824 0.369 0.824 0.824z"
     id="path5038" />
  <path
     class="path13"
     fill="#875e42"
     d="M14.352 17.948c0 0.455-0.369 0.824-0.824 0.824s-0.824-0.369-0.824-0.824c0-0.455 0.369-0.824 0.824-0.824s0.824 0.369 0.824 0.824z"
     id="path5040" />
  <path
     class="path14"
     fill="#875e42"
     d="M20.274 23.463c0 0.455-0.369 0.824-0.824 0.824s-0.824-0.369-0.824-0.824c0-0.455 0.369-0.824 0.824-0.824s0.824 0.369 0.824 0.824z"
     id="path5042" />
  <path
     class="path15"
     fill="#875e42"
     d="M19.525 12.374c0 0.455-0.369 0.824-0.824 0.824s-0.824-0.369-0.824-0.824c0-0.455 0.369-0.824 0.824-0.824s0.824 0.369 0.824 0.824z"
     id="path5044" />
  <path
     class="path16"
     fill="#875e42"
     d="M18.701 25.634c0 0.455-0.369 0.824-0.824 0.824s-0.824-0.369-0.824-0.824c0-0.455 0.369-0.824 0.824-0.824s0.824 0.369 0.824 0.824z"
     id="path5046" />
  <path
     class="path17"
     fill="#875e42"
     d="M18.626 7.812c0 0.455-0.369 0.824-0.824 0.824s-0.824-0.369-0.824-0.824c0-0.455 0.369-0.824 0.824-0.824s0.824 0.369 0.824 0.824z"
     id="path5048" />
  <path
     class="path18"
     fill="#875e42"
     d="M16.824 7.152c0 0.455-0.369 0.824-0.824 0.824s-0.824-0.369-0.824-0.824c0-0.455 0.369-0.824 0.824-0.824s0.824 0.369 0.824 0.824z"
     id="path5050" />
  <path
     class="path19"
     fill="#fff"
     opacity="0.3"
     d="M23.813 5.483c0 0.922-0.747 1.669-1.669 1.669s-1.669-0.747-1.669-1.669c0-0.922 0.747-1.669 1.669-1.669s1.669 0.747 1.669 1.669z"
     id="path5052" />
  <path
     class="path20"
     fill="#fff"
     opacity="0.3"
     d="M24.959 9.069c0 0.461-0.374 0.835-0.834 0.835s-0.834-0.374-0.834-0.835c0-0.461 0.374-0.835 0.834-0.835s0.834 0.374 0.834 0.835z"
     id="path5054" />
  <path
     class="path21"
     fill="#875e42"
     d="M11.84 14.545c0 0.455-0.369 0.824-0.824 0.824s-0.824-0.369-0.824-0.824c0-0.455 0.369-0.824 0.824-0.824s0.824 0.369 0.824 0.824z"
     id="path5056" />
  <path
     class="path22"
     fill="#875e42"
     d="M21.3 18.77c0 0.455-0.369 0.824-0.824 0.824s-0.824-0.369-0.824-0.824c0-0.455 0.369-0.824 0.824-0.824s0.824 0.369 0.824 0.824z"
     id="path5058" />
  <path
     class="path23"
     fill="#ead065"
     d="M16.325 25.493h-0.649c-0.816 0-1.478-0.662-1.478-1.478v-14.557c0-0.816 0.662-1.478 1.478-1.478h0.649c0.816 0 1.478 0.662 1.478 1.478v14.557c0 0.816-0.662 1.478-1.478 1.478z"
     id="path5060" />
  <path
     class="path24"
     fill="#000"
     opacity="0.1"
     d="M6.532 10.727v10.305c0 0-0.343 13.001 17.624 8.586 0.024-0.020 0.048-0.039 0.072-0.058-16.694 3.514-16.37-8.871-16.37-8.871v-10.305c0.477-5.332 5.226-8.023 7.177-8.911h-0.494c-0 0-7.408 2.526-8.010 9.254z"
     id="path5062" />
  <path
     class="path25"
     fill="#000"
     opacity="0.2"
     d="M6.532 21.032v-10.305c0.602-6.728 8.010-9.254 8.010-9.254-5.86 0-10.61 4.75-10.61 10.609v9.309c0 5.859 4.75 10.609 10.61 10.609h2.918c2.54 0 4.87-0.893 6.697-2.382-17.968 4.415-17.624-8.586-17.624-8.586z"
     id="path5064" />
</svg>
