<?xml version="1.0" encoding="UTF-8" standalone="no"?>
<svg
   xmlns:dc="http://purl.org/dc/elements/1.1/"
   xmlns:cc="http://creativecommons.org/ns#"
   xmlns:rdf="http://www.w3.org/1999/02/22-rdf-syntax-ns#"
   xmlns:svg="http://www.w3.org/2000/svg"
   xmlns="http://www.w3.org/2000/svg"
   xmlns:sodipodi="http://sodipodi.sourceforge.net/DTD/sodipodi-0.dtd"
   xmlns:inkscape="http://www.inkscape.org/namespaces/inkscape"
   id="icon-melon"
   viewBox="0 0 32 32"
   version="1.1"
   sodipodi:docname="melon.svg"
   inkscape:version="0.92.3 (2405546, 2018-03-11)">
  <metadata
     id="metadata5353">
    <rdf:RDF>
      <cc:Work
         rdf:about="">
        <dc:format>image/svg+xml</dc:format>
        <dc:type
           rdf:resource="http://purl.org/dc/dcmitype/StillImage" />
        <dc:title>melon</dc:title>
      </cc:Work>
    </rdf:RDF>
  </metadata>
  <defs
     id="defs5351" />
  <sodipodi:namedview
     pagecolor="#ffffff"
     bordercolor="#666666"
     borderopacity="1"
     objecttolerance="10"
     gridtolerance="10"
     guidetolerance="10"
     inkscape:pageopacity="0"
     inkscape:pageshadow="2"
     inkscape:window-width="807"
     inkscape:window-height="480"
     id="namedview5349"
     showgrid="false"
     inkscape:zoom="7.375"
     inkscape:cx="16"
     inkscape:cy="16"
     inkscape:window-x="0"
     inkscape:window-y="27"
     inkscape:window-maximized="0"
     inkscape:current-layer="icon-melon" />
  <title
     id="title5300">melon</title>
  <path
     class="path1"
     fill="#ada323"
     d="M32 16c0 8.837-7.163 16-16 16s-16-7.163-16-16c0-8.837 7.163-16 16-16s16 7.163 16 16z"
     id="path5302" />
  <path
     class="path2"
     fill="#f4bd5b"
     d="M29.503 16c0 7.458-6.046 13.503-13.503 13.503s-13.503-6.046-13.503-13.503c0-7.458 6.046-13.503 13.503-13.503s13.503 6.046 13.503 13.503z"
     id="path5304" />
  <path
     class="path3"
     fill="#ffd283"
     d="M28.591 16c0 6.954-5.637 12.591-12.591 12.591s-12.591-5.637-12.591-12.591c0-6.954 5.637-12.591 12.591-12.591s12.591 5.637 12.591 12.591z"
     id="path5306" />
  <path
     class="path4"
     fill="#fff"
     opacity="0.4"
     d="M25.871 6.243c0 1.399-1.134 2.532-2.532 2.532s-2.532-1.134-2.532-2.532c0-1.399 1.134-2.532 2.532-2.532s2.532 1.134 2.532 2.532z"
     id="path5308" />
  <path
     class="path5"
     fill="#fff"
     opacity="0.4"
     d="M28.651 10.413c0 0.699-0.567 1.266-1.266 1.266s-1.266-0.567-1.266-1.266c0-0.699 0.567-1.266 1.266-1.266s1.266 0.567 1.266 1.266z"
     id="path5310" />
  <path
     class="path6"
     fill="#000"
     opacity="0.2"
     d="M2.757 18.649c-1.252-7.441 3.134-13.542 7.275-17.494-5.88 2.366-10.032 8.119-10.032 14.845 0 8.837 7.163 16 16 16 2.748 0 5.333-0.694 7.593-1.914-9.162 1.638-19.229-1.891-20.836-11.437z"
     id="path5312" />
  <path
     class="path7"
     fill="#f4bd5b"
     d="M22.946 18.621c-0.384-0.192-0.821-0.238-1.248-0.201-1.656 0.146-2.493-1.422-2.724-1.941 0.025-0.157 0.042-0.316 0.042-0.48 0-0.172-0.018-0.34-0.046-0.504 0.269-0.576 1.103-2.007 2.684-1.873 0.432 0.036 0.872-0.006 1.259-0.201 0.761-0.383 1.395-1.314-0.941-3.532-2.226-2.344-3.156-1.697-3.536-0.933-0.189 0.38-0.237 0.813-0.198 1.237 0.178 1.972-2.074 2.788-2.104 2.798-0.044-0.002-0.089-0.007-0.134-0.007-0.069 0-0.136 0.006-0.203 0.010l0.002-0.002c0 0-2.281-0.813-2.107-2.792 0.038-0.43-0.008-0.869-0.203-1.255-0.384-0.759-1.315-1.389-3.531 0.943-2.335 2.219-1.701 3.15-0.941 3.532 0.382 0.192 0.818 0.241 1.245 0.202 1.713-0.155 2.553 1.525 2.752 1.988-0.016 0.128-0.028 0.257-0.028 0.388 0 0.164 0.017 0.323 0.042 0.48-0.23 0.518-1.067 2.087-2.724 1.941-0.427-0.037-0.864 0.008-1.248 0.2-0.762 0.382-1.402 1.312 0.937 3.534 2.216 2.333 3.148 1.703 3.531 0.943 0.195-0.386 0.241-0.824 0.203-1.255-0.173-1.98 2.108-2.792 2.108-2.792l-0.046-0.047c0.070 0.005 0.141 0.011 0.212 0.011s0.142-0.006 0.212-0.011l-0.047 0.047c0 0 2.281 0.813 2.108 2.792-0.038 0.43 0.008 0.869 0.203 1.255 0.384 0.759 1.315 1.389 3.531-0.943 2.339-2.221 1.7-3.152 0.938-3.534z"
     id="path5314" />
  <path
     class="path8"
     fill="#ffdda6"
     d="M12.841 10.398c0 0.411-0.333 0.745-0.745 0.745s-0.745-0.333-0.745-0.745c0-0.411 0.333-0.745 0.745-0.745s0.745 0.333 0.745 0.745z"
     id="path5316" />
  <path
     class="path9"
     fill="#af7c3f"
     d="M12.641 10.258c0 0.15-0.122 0.272-0.272 0.272s-0.272-0.122-0.272-0.272c0-0.15 0.122-0.272 0.272-0.272s0.272 0.122 0.272 0.272z"
     id="path5318" />
  <path
     class="path10"
     fill="#ffdda6"
     d="M11.35 11.993c0 0.411-0.333 0.745-0.745 0.745s-0.745-0.333-0.745-0.745c0-0.411 0.333-0.745 0.745-0.745s0.745 0.333 0.745 0.745z"
     id="path5320" />
  <path
     class="path11"
     fill="#af7c3f"
     d="M11.15 11.853c0 0.15-0.122 0.272-0.272 0.272s-0.272-0.122-0.272-0.272c0-0.15 0.122-0.272 0.272-0.272s0.272 0.122 0.272 0.272z"
     id="path5322" />
  <path
     class="path12"
     fill="#ffdda6"
     d="M22.347 11.887c0 0.411-0.333 0.745-0.744 0.745s-0.744-0.333-0.744-0.745c0-0.411 0.333-0.745 0.744-0.745s0.744 0.333 0.744 0.745z"
     id="path5324" />
  <path
     class="path13"
     fill="#af7c3f"
     d="M22.015 12.161c0 0.15-0.122 0.272-0.272 0.272s-0.272-0.122-0.272-0.272c0-0.15 0.122-0.272 0.272-0.272s0.272 0.122 0.272 0.272z"
     id="path5326" />
  <path
     class="path14"
     fill="#ffdda6"
     d="M20.753 10.398c0 0.411-0.333 0.745-0.744 0.745s-0.744-0.333-0.744-0.745c0-0.411 0.333-0.745 0.744-0.745s0.744 0.333 0.744 0.745z"
     id="path5328" />
  <path
     class="path15"
     fill="#af7c3f"
     d="M20.42 10.67c0 0.15-0.122 0.272-0.272 0.272s-0.272-0.122-0.272-0.272c0-0.15 0.122-0.272 0.272-0.272s0.272 0.122 0.272 0.272z"
     id="path5330" />
  <path
     class="path16"
     fill="#ffdda6"
     d="M12.866 21.983c0 0.411-0.333 0.744-0.745 0.744s-0.745-0.333-0.745-0.744c0-0.411 0.333-0.744 0.745-0.744s0.745 0.333 0.745 0.744z"
     id="path5332" />
  <path
     class="path17"
     fill="#af7c3f"
     d="M12.668 22.122c0 0.15-0.122 0.272-0.272 0.272s-0.272-0.122-0.272-0.272c0-0.15 0.122-0.272 0.272-0.272s0.272 0.122 0.272 0.272z"
     id="path5334" />
  <path
     class="path18"
     fill="#ffdda6"
     d="M11.377 20.388c0 0.411-0.333 0.744-0.745 0.744s-0.745-0.333-0.745-0.744c0-0.411 0.333-0.744 0.745-0.744s0.745 0.333 0.745 0.744z"
     id="path5336" />
  <path
     class="path19"
     fill="#af7c3f"
     d="M11.177 20.527c0 0.15-0.122 0.272-0.272 0.272s-0.272-0.122-0.272-0.272c0-0.15 0.122-0.272 0.272-0.272s0.272 0.122 0.272 0.272z"
     id="path5338" />
  <path
     class="path20"
     fill="#ffdda6"
     d="M22.374 20.492c0 0.411-0.333 0.744-0.744 0.744s-0.744-0.333-0.744-0.744c0-0.411 0.333-0.744 0.744-0.744s0.744 0.333 0.744 0.744z"
     id="path5340" />
  <path
     class="path21"
     fill="#af7c3f"
     d="M22.043 20.22c0 0.15-0.122 0.272-0.272 0.272s-0.272-0.122-0.272-0.272c0-0.15 0.122-0.272 0.272-0.272s0.272 0.122 0.272 0.272z"
     id="path5342" />
  <path
     class="path22"
     fill="#ffdda6"
     d="M20.779 21.983c0 0.411-0.333 0.744-0.744 0.744s-0.744-0.333-0.744-0.744c0-0.411 0.333-0.744 0.744-0.744s0.744 0.333 0.744 0.744z"
     id="path5344" />
  <path
     class="path23"
     fill="#af7c3f"
     d="M20.447 21.711c0 0.15-0.122 0.272-0.272 0.272s-0.272-0.122-0.272-0.272c0-0.15 0.122-0.272 0.272-0.272s0.272 0.122 0.272 0.272z"
     id="path5346" />
</svg>
