<?xml version="1.0" encoding="UTF-8" standalone="no"?>
<svg
   xmlns:dc="http://purl.org/dc/elements/1.1/"
   xmlns:cc="http://creativecommons.org/ns#"
   xmlns:rdf="http://www.w3.org/1999/02/22-rdf-syntax-ns#"
   xmlns:svg="http://www.w3.org/2000/svg"
   xmlns="http://www.w3.org/2000/svg"
   xmlns:sodipodi="http://sodipodi.sourceforge.net/DTD/sodipodi-0.dtd"
   xmlns:inkscape="http://www.inkscape.org/namespaces/inkscape"
   id="icon-pear"
   viewBox="0 0 32 32"
   version="1.1"
   sodipodi:docname="pear.svg"
   inkscape:version="0.92.3 (2405546, 2018-03-11)">
  <metadata
     id="metadata5881">
    <rdf:RDF>
      <cc:Work
         rdf:about="">
        <dc:format>image/svg+xml</dc:format>
        <dc:type
           rdf:resource="http://purl.org/dc/dcmitype/StillImage" />
        <dc:title>pear</dc:title>
      </cc:Work>
    </rdf:RDF>
  </metadata>
  <defs
     id="defs5879" />
  <sodipodi:namedview
     pagecolor="#ffffff"
     bordercolor="#666666"
     borderopacity="1"
     objecttolerance="10"
     gridtolerance="10"
     guidetolerance="10"
     inkscape:pageopacity="0"
     inkscape:pageshadow="2"
     inkscape:window-width="807"
     inkscape:window-height="480"
     id="namedview5877"
     showgrid="false"
     inkscape:zoom="7.375"
     inkscape:cx="16"
     inkscape:cy="16"
     inkscape:window-x="0"
     inkscape:window-y="27"
     inkscape:window-maximized="0"
     inkscape:current-layer="icon-pear" />
  <title
     id="title5854">pear</title>
  <path
     class="path1"
     fill="#fca430"
     d="M22.27 10.049c-1.132-1.319-1.885-2.912-2.237-4.615-0.787-3.805-2.342-4.975-3.432-5.31v-0.088c0 0-0.233-0.058-0.6-0.028-0.367-0.029-0.6 0.028-0.6 0.028v0.088c-1.090 0.335-2.645 1.505-3.432 5.31-0.352 1.702-1.105 3.296-2.237 4.615-2.007 2.337-4.835 6.734-4.153 12.411 0.944 7.863 6.405 9.588 10.423 9.538 3.053 0.049 9.479-1.675 10.423-9.538 0.682-5.677-2.147-10.074-4.153-12.411z"
     id="path5856" />
  <path
     class="path2"
     fill="#ffe388"
     d="M20.869 10.317c-1.132-1.238-1.885-2.735-2.237-4.334-0.608-2.762-1.082-4.631-2.632-4.631s-2.023 1.869-2.632 4.631c-0.352 1.598-1.105 3.095-2.237 4.334-2.007 2.195-4.829 7.327-4.153 11.656 1.169 7.496 5.604 8.452 9.022 8.604 3.418-0.152 7.853-1.108 9.022-8.604 0.675-4.329-2.147-9.461-4.153-11.656z"
     id="path5858" />
  <path
     class="path3"
     fill="#000"
     opacity="0.2"
     d="M7.795 25.149c-2.654-8.384 3.337-14.831 3.337-14.831 2.434-3.63 2.573-5.786 2.573-5.786 0.166-1.755 0.519-3.068 0.899-4.030-0.958 0.623-2.027 1.989-2.636 4.934-0.352 1.702-1.105 3.296-2.237 4.615-2.007 2.337-4.835 6.734-4.153 12.411 0.944 7.863 6.405 9.588 10.423 9.538 1.354 0.022 3.372-0.307 5.28-1.364-5.815 0.668-11.838-0.281-13.486-5.486z"
     id="path5860" />
  <path
     class="path4"
     fill="#000"
     opacity="0.1"
     d="M11.131 10.317c0 0-6.322 6.814-3.337 14.831 2.12 5.693 7.671 6.154 13.486 5.486 0.211-0.117 0.421-0.243 0.628-0.379-5.604 0.521-11.376-0.506-12.823-5.555-2.21-7.71 3.164-13.844 3.164-13.844 2.434-3.63 2.746-6.774 2.746-6.774 0.169-1.784 0.531-3.114 0.919-4.080-0.316-0.015-0.514 0.033-0.514 0.033v0.088c-0.246 0.076-0.517 0.195-0.796 0.376-0.38 0.962-0.733 2.276-0.899 4.030 0 0-0.327 3.255-2.573 5.786z"
     id="path5862" />
  <path
     class="path5"
     fill="#a05f32"
     d="M15.415 21.457c0 0.845-0.419 1.53-0.935 1.53s-0.935-0.685-0.935-1.53c0-0.845 0.419-1.53 0.935-1.53s0.935 0.685 0.935 1.53z"
     id="path5864" />
  <path
     class="path6"
     fill="#a05f32"
     d="M18.455 21.457c0 0.845-0.419 1.53-0.935 1.53s-0.935-0.685-0.935-1.53c0-0.845 0.419-1.53 0.935-1.53s0.935 0.685 0.935 1.53z"
     id="path5866" />
  <path
     class="path7"
     fill="#fff"
     opacity="0.3"
     d="M23.948 12.705c0 0.737-0.597 1.334-1.334 1.334s-1.334-0.597-1.334-1.334c0-0.737 0.597-1.334 1.334-1.334s1.334 0.597 1.334 1.334z"
     id="path5868" />
  <path
     class="path8"
     fill="#fff"
     opacity="0.3"
     d="M24.864 15.572c0 0.368-0.299 0.667-0.667 0.667s-0.667-0.299-0.667-0.667c0-0.368 0.299-0.667 0.667-0.667s0.667 0.299 0.667 0.667z"
     id="path5870" />
  <path
     class="path9"
     fill="#d3966c"
     d="M18.212 20.889c0 0.313-0.155 0.567-0.347 0.567s-0.347-0.254-0.347-0.567c0-0.313 0.155-0.567 0.347-0.567s0.347 0.254 0.347 0.567z"
     id="path5872" />
  <path
     class="path10"
     fill="#d3966c"
     d="M15.172 20.889c0 0.313-0.155 0.567-0.347 0.567s-0.347-0.254-0.347-0.567c0-0.313 0.155-0.567 0.347-0.567s0.347 0.254 0.347 0.567z"
     id="path5874" />
</svg>
