<?xml version="1.0" encoding="UTF-8" standalone="no"?>
<svg
   xmlns:dc="http://purl.org/dc/elements/1.1/"
   xmlns:cc="http://creativecommons.org/ns#"
   xmlns:rdf="http://www.w3.org/1999/02/22-rdf-syntax-ns#"
   xmlns:svg="http://www.w3.org/2000/svg"
   xmlns="http://www.w3.org/2000/svg"
   xmlns:sodipodi="http://sodipodi.sourceforge.net/DTD/sodipodi-0.dtd"
   xmlns:inkscape="http://www.inkscape.org/namespaces/inkscape"
   id="icon-pitaya"
   viewBox="0 0 32 32"
   version="1.1"
   sodipodi:docname="pitaya.svg"
   inkscape:version="0.92.3 (2405546, 2018-03-11)">
  <metadata
     id="metadata6427">
    <rdf:RDF>
      <cc:Work
         rdf:about="">
        <dc:format>image/svg+xml</dc:format>
        <dc:type
           rdf:resource="http://purl.org/dc/dcmitype/StillImage" />
        <dc:title>pitaya</dc:title>
      </cc:Work>
    </rdf:RDF>
  </metadata>
  <defs
     id="defs6425" />
  <sodipodi:namedview
     pagecolor="#ffffff"
     bordercolor="#666666"
     borderopacity="1"
     objecttolerance="10"
     gridtolerance="10"
     guidetolerance="10"
     inkscape:pageopacity="0"
     inkscape:pageshadow="2"
     inkscape:window-width="807"
     inkscape:window-height="480"
     id="namedview6423"
     showgrid="false"
     inkscape:zoom="7.375"
     inkscape:cx="16"
     inkscape:cy="16"
     inkscape:window-x="0"
     inkscape:window-y="27"
     inkscape:window-maximized="0"
     inkscape:current-layer="icon-pitaya" />
  <title
     id="title6310">pitaya</title>
  <path
     class="path1"
     fill="#b29726"
     d="M3.706 14.57v-12.861c0 0 2.32 1.819 2.087 8.987l-2.087 3.874z"
     id="path6312" />
  <path
     class="path2"
     fill="#b29726"
     d="M8.477 5.22c0 0-1.003-3.145 1.133-5.173 0 0 1.338-0.488 1.743 1.661l-2.876 3.511z"
     id="path6314" />
  <path
     class="path3"
     fill="#bfa32c"
     d="M28.174 14.829v-12.86c0 0-2.32 1.819-2.087 8.987l2.087 3.874z"
     id="path6316" />
  <path
     class="path4"
     fill="#bfa32c"
     d="M23.402 5.48c0 0 1.003-3.145-1.133-5.173 0 0-1.339-0.488-1.743 1.662l2.876 3.511z"
     id="path6318" />
  <path
     class="path5"
     fill="#f46c51"
     d="M26.119 10.713l0.043-0.017c0 0-3.55-10.73-10.185-10.648-6.635-0.082-10.185 10.648-10.185 10.648l0.077 0.030c-1.825 2.245-2.92 5.106-2.92 8.224 0 7.207 5.843 13.050 13.050 13.050s13.050-5.843 13.050-13.050c0-3.124-1.099-5.991-2.93-8.238z"
     id="path6320" />
  <path
     class="path6"
     fill="#ffe388"
     d="M27.227 18.647c0-2.889-1.099-5.54-2.93-7.617l0.043-0.015c0 0-2.132-5.957-6.18-8.603-1.436-0.939-3.287-0.938-4.713 0.017-3.957 2.649-5.847 8.556-5.847 8.556l0.043 0.015c-1.831 2.077-2.931 4.728-2.931 7.617 0 6.179 4.298 11.225 10.769 11.934l0.36 0.064c0.027-0.003 0.053-0.007 0.080-0.010 0.027 0.003 0.053 0.007 0.080 0.010l0.482-0.081c6.472-0.708 10.745-5.706 10.745-11.886z"
     id="path6322" />
  <path
     class="path7"
     fill="#a05f32"
     d="M17.308 3.478c0 0.424-0.344 0.768-0.768 0.768s-0.768-0.344-0.768-0.768c0-0.424 0.344-0.768 0.768-0.768s0.768 0.344 0.768 0.768z"
     id="path6324" />
  <path
     class="path8"
     fill="#a05f32"
     d="M13.41 12.215c0 0.424-0.344 0.768-0.768 0.768s-0.768-0.344-0.768-0.768c0-0.424 0.344-0.768 0.768-0.768s0.768 0.344 0.768 0.768z"
     id="path6326" />
  <path
     class="path9"
     fill="#a05f32"
     d="M19.286 6.11c0 0.424-0.344 0.768-0.768 0.768s-0.768-0.344-0.768-0.768c0-0.424 0.344-0.768 0.768-0.768s0.768 0.344 0.768 0.768z"
     id="path6328" />
  <path
     class="path10"
     fill="#a05f32"
     d="M14.957 9.222c0 0.424-0.344 0.768-0.768 0.768s-0.768-0.344-0.768-0.768c0-0.424 0.344-0.768 0.768-0.768s0.768 0.344 0.768 0.768z"
     id="path6330" />
  <path
     class="path11"
     fill="#a05f32"
     d="M16.494 5.988c0 0.424-0.344 0.768-0.768 0.768s-0.768-0.344-0.768-0.768c0-0.424 0.344-0.768 0.768-0.768s0.768 0.344 0.768 0.768z"
     id="path6332" />
  <path
     class="path12"
     fill="#a05f32"
     d="M13.41 6.777c0 0.424-0.344 0.768-0.768 0.768s-0.768-0.344-0.768-0.768c0-0.424 0.344-0.768 0.768-0.768s0.768 0.344 0.768 0.768z"
     id="path6334" />
  <path
     class="path13"
     fill="#a05f32"
     d="M23.563 11.787c0 0.424-0.344 0.768-0.768 0.768s-0.768-0.344-0.768-0.768c0-0.424 0.344-0.768 0.768-0.768s0.768 0.344 0.768 0.768z"
     id="path6336" />
  <path
     class="path14"
     fill="#a05f32"
     d="M15.726 15.205c0 0.424-0.344 0.768-0.768 0.768s-0.768-0.344-0.768-0.768c0-0.424 0.344-0.768 0.768-0.768s0.768 0.344 0.768 0.768z"
     id="path6338" />
  <path
     class="path15"
     fill="#a05f32"
     d="M25.118 14.57c0 0.424-0.344 0.768-0.768 0.768s-0.768-0.344-0.768-0.768c0-0.424 0.344-0.768 0.768-0.768s0.768 0.344 0.768 0.768z"
     id="path6340" />
  <path
     class="path16"
     fill="#a05f32"
     d="M10.377 12.413c0 0.424-0.344 0.768-0.768 0.768s-0.768-0.344-0.768-0.768c0-0.424 0.344-0.768 0.768-0.768s0.768 0.344 0.768 0.768z"
     id="path6342" />
  <path
     class="path17"
     fill="#a05f32"
     d="M19.286 17.249c0 0.424-0.344 0.768-0.768 0.768s-0.768-0.344-0.768-0.768c0-0.424 0.344-0.768 0.768-0.768s0.768 0.344 0.768 0.768z"
     id="path6344" />
  <path
     class="path18"
     fill="#a05f32"
     d="M14.178 4.247c0 0.424-0.344 0.768-0.768 0.768s-0.768-0.344-0.768-0.768c0-0.424 0.344-0.768 0.768-0.768s0.768 0.344 0.768 0.768z"
     id="path6346" />
  <path
     class="path19"
     fill="#a05f32"
     d="M18.029 8.555c0 0.424-0.344 0.768-0.768 0.768s-0.768-0.344-0.768-0.768c0-0.424 0.344-0.768 0.768-0.768s0.768 0.344 0.768 0.768z"
     id="path6348" />
  <path
     class="path20"
     fill="#a05f32"
     d="M21.59 9.128c0 0.424-0.344 0.768-0.768 0.768s-0.768-0.344-0.768-0.768c0-0.424 0.344-0.768 0.768-0.768s0.768 0.344 0.768 0.768z"
     id="path6350" />
  <path
     class="path21"
     fill="#a05f32"
     d="M16.541 12.215c0 0.424-0.344 0.768-0.768 0.768s-0.768-0.344-0.768-0.768c0-0.424 0.344-0.768 0.768-0.768s0.768 0.344 0.768 0.768z"
     id="path6352" />
  <path
     class="path22"
     fill="#a05f32"
     d="M11.145 9.896c0 0.424-0.344 0.768-0.768 0.768s-0.768-0.344-0.768-0.768c0-0.424 0.344-0.768 0.768-0.768s0.768 0.344 0.768 0.768z"
     id="path6354" />
  <path
     class="path23"
     fill="#a05f32"
     d="M12.121 15.205c0 0.424-0.344 0.768-0.768 0.768s-0.768-0.344-0.768-0.768c0-0.424 0.344-0.768 0.768-0.768s0.768 0.344 0.768 0.768z"
     id="path6356" />
  <path
     class="path24"
     fill="#a05f32"
     d="M20.054 11.447c0 0.424-0.344 0.768-0.768 0.768s-0.768-0.344-0.768-0.768c0-0.424 0.344-0.768 0.768-0.768s0.768 0.344 0.768 0.768z"
     id="path6358" />
  <path
     class="path25"
     fill="#a05f32"
     d="M8.078 15.205c0 0.424-0.344 0.768-0.768 0.768s-0.768-0.344-0.768-0.768c0-0.424 0.344-0.768 0.768-0.768s0.768 0.344 0.768 0.768z"
     id="path6360" />
  <path
     class="path26"
     fill="#fff"
     opacity="0.3"
     d="M23.282 5.718c0 0.859-0.697 1.556-1.556 1.556s-1.556-0.697-1.556-1.556c0-0.859 0.697-1.556 1.556-1.556s1.556 0.697 1.556 1.556z"
     id="path6362" />
  <path
     class="path27"
     fill="#fff"
     opacity="0.3"
     d="M24.35 9.063c0 0.43-0.348 0.778-0.778 0.778s-0.778-0.348-0.778-0.778c0-0.43 0.348-0.778 0.778-0.778s0.778 0.348 0.778 0.778z"
     id="path6364" />
  <path
     class="path28"
     fill="#a05f32"
     d="M20.939 23.131c0 0.424-0.344 0.768-0.768 0.768s-0.768-0.344-0.768-0.768c0-0.424 0.344-0.768 0.768-0.768s0.768 0.344 0.768 0.768z"
     id="path6366" />
  <path
     class="path29"
     fill="#a05f32"
     d="M23.895 21.985c0 0.424-0.344 0.768-0.768 0.768s-0.768-0.344-0.768-0.768c0-0.424 0.344-0.768 0.768-0.768s0.768 0.344 0.768 0.768z"
     id="path6368" />
  <path
     class="path30"
     fill="#a05f32"
     d="M17.262 23.521c0 0.424-0.344 0.768-0.768 0.768s-0.768-0.344-0.768-0.768c0-0.424 0.344-0.768 0.768-0.768s0.768 0.344 0.768 0.768z"
     id="path6370" />
  <path
     class="path31"
     fill="#a05f32"
     d="M7.31 19.718c0 0.424-0.344 0.768-0.768 0.768s-0.768-0.344-0.768-0.768c0-0.424 0.344-0.768 0.768-0.768s0.768 0.344 0.768 0.768z"
     id="path6372" />
  <path
     class="path32"
     fill="#a05f32"
     d="M16.767 19.146c0 0.424-0.344 0.768-0.768 0.768s-0.768-0.344-0.768-0.768c0-0.424 0.344-0.768 0.768-0.768s0.768 0.344 0.768 0.768z"
     id="path6374" />
  <path
     class="path33"
     fill="#a05f32"
     d="M25.118 18.018c0 0.424-0.344 0.768-0.768 0.768s-0.768-0.344-0.768-0.768c0-0.424 0.344-0.768 0.768-0.768s0.768 0.344 0.768 0.768z"
     id="path6376" />
  <path
     class="path34"
     fill="#a05f32"
     d="M11.145 27.49c0 0.424-0.344 0.768-0.768 0.768s-0.768-0.344-0.768-0.768c0-0.424 0.344-0.768 0.768-0.768s0.768 0.344 0.768 0.768z"
     id="path6378" />
  <path
     class="path35"
     fill="#a05f32"
     d="M14.178 25.547c0 0.424-0.344 0.768-0.768 0.768s-0.768-0.344-0.768-0.768c0-0.424 0.344-0.768 0.768-0.768s0.768 0.344 0.768 0.768z"
     id="path6380" />
  <path
     class="path36"
     fill="#a05f32"
     d="M8.846 25.547c0 0.424-0.344 0.768-0.768 0.768s-0.768-0.344-0.768-0.768c0-0.424 0.344-0.768 0.768-0.768s0.768 0.344 0.768 0.768z"
     id="path6382" />
  <path
     class="path37"
     fill="#a05f32"
     d="M8.842 22.753c0 0.424-0.344 0.768-0.768 0.768s-0.768-0.344-0.768-0.768c0-0.424 0.344-0.768 0.768-0.768s0.768 0.344 0.768 0.768z"
     id="path6384" />
  <path
     class="path38"
     fill="#a05f32"
     d="M12.121 23.131c0 0.424-0.344 0.768-0.768 0.768s-0.768-0.344-0.768-0.768c0-0.424 0.344-0.768 0.768-0.768s0.768 0.344 0.768 0.768z"
     id="path6386" />
  <path
     class="path39"
     fill="#a05f32"
     d="M14.957 21.597c0 0.424-0.344 0.768-0.768 0.768s-0.768-0.344-0.768-0.768c0-0.424 0.344-0.768 0.768-0.768s0.768 0.344 0.768 0.768z"
     id="path6388" />
  <path
     class="path40"
     fill="#a05f32"
     d="M11.353 20.486c0 0.424-0.344 0.768-0.768 0.768s-0.768-0.344-0.768-0.768c0-0.424 0.344-0.768 0.768-0.768s0.768 0.344 0.768 0.768z"
     id="path6390" />
  <path
     class="path41"
     fill="#a05f32"
     d="M19.286 20.932c0 0.424-0.344 0.768-0.768 0.768s-0.768-0.344-0.768-0.768c0-0.424 0.344-0.768 0.768-0.768s0.768 0.344 0.768 0.768z"
     id="path6392" />
  <path
     class="path42"
     fill="#a05f32"
     d="M9.61 17.61c0 0.424-0.344 0.768-0.768 0.768s-0.768-0.344-0.768-0.768c0-0.424 0.344-0.768 0.768-0.768s0.768 0.344 0.768 0.768z"
     id="path6394" />
  <path
     class="path43"
     fill="#a05f32"
     d="M22.358 15.338c0 0.424-0.344 0.768-0.768 0.768s-0.768-0.344-0.768-0.768c0-0.424 0.344-0.768 0.768-0.768s0.768 0.344 0.768 0.768z"
     id="path6396" />
  <path
     class="path44"
     fill="#a05f32"
     d="M14.178 18.378c0 0.424-0.344 0.768-0.768 0.768s-0.768-0.344-0.768-0.768c0-0.424 0.344-0.768 0.768-0.768s0.768 0.344 0.768 0.768z"
     id="path6398" />
  <path
     class="path45"
     fill="#a05f32"
     d="M22.358 19.396c0 0.424-0.344 0.768-0.768 0.768s-0.768-0.344-0.768-0.768c0-0.424 0.344-0.768 0.768-0.768s0.768 0.344 0.768 0.768z"
     id="path6400" />
  <path
     class="path46"
     fill="#a05f32"
     d="M19.286 14.437c0 0.424-0.344 0.768-0.768 0.768s-0.768-0.344-0.768-0.768c0-0.424 0.344-0.768 0.768-0.768s0.768 0.344 0.768 0.768z"
     id="path6402" />
  <path
     class="path47"
     fill="#a05f32"
     d="M14.19 28.624c0 0.424-0.344 0.768-0.768 0.768s-0.768-0.344-0.768-0.768c0-0.424 0.344-0.768 0.768-0.768s0.768 0.344 0.768 0.768z"
     id="path6404" />
  <path
     class="path48"
     fill="#a05f32"
     d="M20.054 26.316c0 0.424-0.344 0.768-0.768 0.768s-0.768-0.344-0.768-0.768c0-0.424 0.344-0.768 0.768-0.768s0.768 0.344 0.768 0.768z"
     id="path6406" />
  <path
     class="path49"
     fill="#a05f32"
     d="M18.029 29.21c0 0.424-0.344 0.768-0.768 0.768s-0.768-0.344-0.768-0.768c0-0.424 0.344-0.768 0.768-0.768s0.768 0.344 0.768 0.768z"
     id="path6408" />
  <path
     class="path50"
     fill="#a05f32"
     d="M22.358 27.852c0 0.424-0.344 0.768-0.768 0.768s-0.768-0.344-0.768-0.768c0-0.424 0.344-0.768 0.768-0.768s0.768 0.344 0.768 0.768z"
     id="path6410" />
  <path
     class="path51"
     fill="#a05f32"
     d="M26.654 22.204c0 0.424-0.344 0.768-0.768 0.768s-0.768-0.344-0.768-0.768c0-0.424 0.344-0.768 0.768-0.768s0.768 0.344 0.768 0.768z"
     id="path6412" />
  <path
     class="path52"
     fill="#a05f32"
     d="M23.126 24.646c0 0.424-0.344 0.768-0.768 0.768s-0.768-0.344-0.768-0.768c0-0.424 0.344-0.768 0.768-0.768s0.768 0.344 0.768 0.768z"
     id="path6414" />
  <path
     class="path53"
     fill="#a05f32"
     d="M16.494 26.909c0 0.424-0.344 0.768-0.768 0.768s-0.768-0.344-0.768-0.768c0-0.424 0.344-0.768 0.768-0.768s0.768 0.344 0.768 0.768z"
     id="path6416" />
  <path
     class="path54"
     fill="#000"
     opacity="0.2"
     d="M5.903 23.9c-3.284-7.048 1.697-12.916 1.697-12.916 2.863-8.392 8.377-10.936 8.377-10.936-6.634-0.082-10.185 10.648-10.185 10.648l0.077 0.030c-1.825 2.245-2.92 5.106-2.92 8.224 0 7.207 5.843 13.050 13.050 13.050 1.927 0 3.755-0.421 5.402-1.171-5.935 0.503-12.763-1.058-15.499-6.929z"
     id="path6418" />
  <path
     class="path55"
     fill="#000"
     opacity="0.1"
     d="M7.601 10.984c0 0-4.982 5.868-1.697 12.916 2.736 5.871 9.564 7.432 15.499 6.929 0.191-0.087 0.379-0.178 0.565-0.274-5.552 0.137-11.513-1.62-14.024-7.009-3.284-7.048 1.697-12.917 1.697-12.917 2.191-6.422 5.932-9.417 7.569-10.47-0.398-0.077-0.808-0.116-1.232-0.111-0 0-5.515 2.544-8.377 10.936z"
     id="path6420" />
</svg>
