<?xml version="1.0" encoding="UTF-8" standalone="no"?>
<svg
   xmlns:dc="http://purl.org/dc/elements/1.1/"
   xmlns:cc="http://creativecommons.org/ns#"
   xmlns:rdf="http://www.w3.org/1999/02/22-rdf-syntax-ns#"
   xmlns:svg="http://www.w3.org/2000/svg"
   xmlns="http://www.w3.org/2000/svg"
   xmlns:sodipodi="http://sodipodi.sourceforge.net/DTD/sodipodi-0.dtd"
   xmlns:inkscape="http://www.inkscape.org/namespaces/inkscape"
   id="icon-avocado"
   viewBox="0 0 32 32"
   version="1.1"
   sodipodi:docname="avocado.svg"
   inkscape:version="0.92.3 (2405546, 2018-03-11)">
  <metadata
     id="metadata241">
    <rdf:RDF>
      <cc:Work
         rdf:about="">
        <dc:format>image/svg+xml</dc:format>
        <dc:type
           rdf:resource="http://purl.org/dc/dcmitype/StillImage" />
        <dc:title>avocado</dc:title>
      </cc:Work>
    </rdf:RDF>
  </metadata>
  <defs
     id="defs239" />
  <sodipodi:namedview
     pagecolor="#ffffff"
     bordercolor="#666666"
     borderopacity="1"
     objecttolerance="10"
     gridtolerance="10"
     guidetolerance="10"
     inkscape:pageopacity="0"
     inkscape:pageshadow="2"
     inkscape:window-width="1920"
     inkscape:window-height="1025"
     id="namedview237"
     showgrid="false"
     inkscape:zoom="7.375"
     inkscape:cx="16"
     inkscape:cy="16"
     inkscape:window-x="0"
     inkscape:window-y="27"
     inkscape:window-maximized="1"
     inkscape:current-layer="icon-avocado" />
  <title
     id="title214">avocado</title>
  <path
     class="path1"
     fill="#bfa32c"
     d="M22.27 10.049c-1.132-1.319-1.885-2.912-2.237-4.615-0.787-3.805-2.342-4.975-3.432-5.31v-0.088c0 0-0.233-0.058-0.6-0.028-0.367-0.029-0.6 0.028-0.6 0.028v0.088c-1.091 0.335-2.645 1.505-3.432 5.31-0.352 1.702-1.105 3.296-2.237 4.615-2.007 2.337-4.835 6.734-4.154 12.411 0.944 7.863 6.405 9.588 10.423 9.538 3.053 0.049 9.479-1.675 10.423-9.538 0.682-5.677-2.146-10.074-4.153-12.411z"
     id="path216" />
  <path
     class="path2"
     fill="#fbd960"
     d="M20.869 10.317c-1.132-1.238-1.885-2.735-2.237-4.334-0.608-2.762-1.082-4.631-2.632-4.631s-2.023 1.869-2.631 4.631c-0.352 1.599-1.105 3.095-2.237 4.334-2.007 2.195-4.829 7.327-4.154 11.656 1.169 7.496 5.604 8.452 9.022 8.604 3.418-0.152 7.853-1.108 9.022-8.604 0.675-4.329-2.147-9.461-4.153-11.656z"
     id="path218" />
  <path
     class="path3"
     fill="#a05f32"
     d="M21.303 20.687c0 2.929-2.374 5.303-5.303 5.303s-5.303-2.374-5.303-5.303c0-2.929 2.374-5.303 5.303-5.303s5.303 2.374 5.303 5.303z"
     id="path220" />
  <path
     class="path4"
     fill="#000"
     opacity="0.1"
     d="M11.038 18.753c1.495-1.402 4.19-0.958 6.020 0.993s2.102 4.668 0.607 6.071c-1.495 1.402-4.19 0.958-6.020-0.993s-2.102-4.668-0.607-6.071z"
     id="path222" />
  <path
     class="path5"
     fill="#c48960"
     d="M19.333 17.361c0 0.614-0.497 1.111-1.111 1.111s-1.111-0.497-1.111-1.111c0-0.614 0.497-1.111 1.111-1.111s1.111 0.497 1.111 1.111z"
     id="path224" />
  <path
     class="path6"
     fill="#c48960"
     d="M20.178 20.028c0 0.401-0.325 0.725-0.725 0.725s-0.725-0.325-0.725-0.725c0-0.401 0.325-0.725 0.725-0.725s0.725 0.325 0.725 0.725z"
     id="path226" />
  <path
     class="path7"
     fill="#000"
     opacity="0.2"
     d="M7.795 25.149c-2.654-8.384 3.337-14.831 3.337-14.831 2.434-3.63 2.573-5.786 2.573-5.786 0.167-1.755 0.52-3.068 0.899-4.030-0.958 0.623-2.027 1.989-2.636 4.934-0.352 1.702-1.105 3.296-2.237 4.615-2.007 2.338-4.835 6.734-4.153 12.411 0.944 7.863 6.405 9.588 10.423 9.538 1.354 0.022 3.372-0.307 5.281-1.364-5.815 0.668-11.838-0.281-13.486-5.486z"
     id="path228" />
  <path
     class="path8"
     fill="#000"
     opacity="0.1"
     d="M11.131 10.317c0 0-6.322 6.814-3.337 14.831 2.12 5.693 7.671 6.154 13.486 5.486 0.211-0.117 0.421-0.243 0.628-0.379-5.604 0.521-11.377-0.506-12.823-5.555-2.21-7.71 3.164-13.844 3.164-13.844 2.434-3.63 2.746-6.774 2.746-6.774 0.169-1.784 0.531-3.114 0.919-4.080-0.316-0.015-0.514 0.033-0.514 0.033v0.088c-0.246 0.076-0.517 0.195-0.796 0.376-0.38 0.962-0.733 2.276-0.899 4.030-0 0-0.328 3.255-2.573 5.786z"
     id="path230" />
  <path
     class="path9"
     fill="#fff"
     opacity="0.3"
     d="M22.785 11.444c0 0.737-0.597 1.334-1.334 1.334s-1.334-0.597-1.334-1.334c0-0.737 0.597-1.334 1.334-1.334s1.334 0.597 1.334 1.334z"
     id="path232" />
  <path
     class="path10"
     fill="#fff"
     opacity="0.3"
     d="M23.701 14.309c0 0.368-0.299 0.667-0.667 0.667s-0.667-0.299-0.667-0.667c0-0.368 0.299-0.667 0.667-0.667s0.667 0.299 0.667 0.667z"
     id="path234" />
</svg>
