<?xml version="1.0" encoding="UTF-8" standalone="no"?>
<svg
   xmlns:dc="http://purl.org/dc/elements/1.1/"
   xmlns:cc="http://creativecommons.org/ns#"
   xmlns:rdf="http://www.w3.org/1999/02/22-rdf-syntax-ns#"
   xmlns:svg="http://www.w3.org/2000/svg"
   xmlns="http://www.w3.org/2000/svg"
   xmlns:sodipodi="http://sodipodi.sourceforge.net/DTD/sodipodi-0.dtd"
   xmlns:inkscape="http://www.inkscape.org/namespaces/inkscape"
   id="icon-coconut"
   viewBox="0 0 32 32"
   version="1.1"
   sodipodi:docname="coconut.svg"
   inkscape:version="0.92.3 (2405546, 2018-03-11)">
  <metadata
     id="metadata4279">
    <rdf:RDF>
      <cc:Work
         rdf:about="">
        <dc:format>image/svg+xml</dc:format>
        <dc:type
           rdf:resource="http://purl.org/dc/dcmitype/StillImage" />
        <dc:title>coconut</dc:title>
      </cc:Work>
    </rdf:RDF>
  </metadata>
  <defs
     id="defs4277" />
  <sodipodi:namedview
     pagecolor="#ffffff"
     bordercolor="#666666"
     borderopacity="1"
     objecttolerance="10"
     gridtolerance="10"
     guidetolerance="10"
     inkscape:pageopacity="0"
     inkscape:pageshadow="2"
     inkscape:window-width="807"
     inkscape:window-height="480"
     id="namedview4275"
     showgrid="false"
     inkscape:zoom="7.375"
     inkscape:cx="16"
     inkscape:cy="16"
     inkscape:window-x="0"
     inkscape:window-y="27"
     inkscape:window-maximized="0"
     inkscape:current-layer="icon-coconut" />
  <title
     id="title4254">coconut</title>
  <path
     class="path1"
     fill="#a05f32"
     d="M32 16c0 8.836-7.163 16-16 16s-16-7.163-16-16c0-8.836 7.163-16 16-16s16 7.163 16 16z"
     id="path4256" />
  <path
     class="path2"
     fill="#ffe388"
     d="M29.093 16c0 7.231-5.862 13.093-13.093 13.093s-13.093-5.862-13.093-13.093c0-7.231 5.862-13.093 13.093-13.093s13.093 5.862 13.093 13.093z"
     id="path4258" />
  <path
     class="path3"
     fill="#e2b759"
     d="M24.56 16c0 4.728-3.833 8.56-8.56 8.56s-8.56-3.833-8.56-8.56c0-4.728 3.833-8.56 8.56-8.56s8.56 3.833 8.56 8.56z"
     id="path4260" />
  <path
     class="path4"
     fill="#eac363"
     d="M21.89 17.333c0 3.99-3.235 7.225-7.225 7.225s-7.225-3.235-7.225-7.225c0-3.99 3.235-7.225 7.225-7.225s7.225 3.235 7.225 7.225z"
     id="path4262" />
  <path
     class="path5"
     fill="#a05f32"
     d="M16 2.907v-0.528c-0.719 0.162-1.523 0.401-2.357 0.753 1.399-0.26 2.357-0.225 2.357-0.225z"
     id="path4264" />
  <path
     class="path6"
     fill="#000"
     opacity="0.2"
     d="M10.113 27.81c-6.863-3.803-9.054-12.762-4.77-19.335 2.375-3.645 5.955-4.908 8.299-5.343 0.835-0.352 1.639-0.591 2.357-0.753v-2.379c-8.837 0-16 7.163-16 16s7.163 16 16 16c2.761 0 5.359-0.7 7.626-1.931-6.14 0.487-10.468-0.571-13.513-2.259z"
     id="path4266" />
  <path
     class="path7"
     fill="#000"
     opacity="0.1"
     d="M13.008 26.945c-6.863-3.803-9.054-12.762-4.769-19.335 1.521-2.334 3.536-3.69 5.404-4.479-2.344 0.436-5.924 1.699-8.299 5.343-4.285 6.573-2.093 15.532 4.77 19.335 3.046 1.688 7.373 2.746 13.513 2.259 0.436-0.237 0.858-0.494 1.268-0.768-5.288 0.195-9.116-0.821-11.886-2.355z"
     id="path4268" />
  <path
     class="path8"
     fill="#fff"
     opacity="0.3"
     d="M26.605 6.309c0 0.988-0.801 1.788-1.788 1.788s-1.788-0.801-1.788-1.788c0-0.988 0.801-1.788 1.788-1.788s1.788 0.801 1.788 1.788z"
     id="path4270" />
  <path
     class="path9"
     fill="#fff"
     opacity="0.3"
     d="M27.834 10.153c0 0.494-0.4 0.894-0.894 0.894s-0.894-0.4-0.894-0.894c0-0.494 0.4-0.894 0.894-0.894s0.894 0.4 0.894 0.894z"
     id="path4272" />
</svg>
