<?xml version="1.0" encoding="UTF-8" standalone="no"?>
<svg
   xmlns:dc="http://purl.org/dc/elements/1.1/"
   xmlns:cc="http://creativecommons.org/ns#"
   xmlns:rdf="http://www.w3.org/1999/02/22-rdf-syntax-ns#"
   xmlns:svg="http://www.w3.org/2000/svg"
   xmlns="http://www.w3.org/2000/svg"
   xmlns:sodipodi="http://sodipodi.sourceforge.net/DTD/sodipodi-0.dtd"
   xmlns:inkscape="http://www.inkscape.org/namespaces/inkscape"
   id="icon-fig"
   viewBox="0 0 32 32"
   version="1.1"
   sodipodi:docname="fig.svg"
   inkscape:version="0.92.3 (2405546, 2018-03-11)">
  <metadata
     id="metadata4580">
    <rdf:RDF>
      <cc:Work
         rdf:about="">
        <dc:format>image/svg+xml</dc:format>
        <dc:type
           rdf:resource="http://purl.org/dc/dcmitype/StillImage" />
        <dc:title>fig</dc:title>
      </cc:Work>
    </rdf:RDF>
  </metadata>
  <defs
     id="defs4578" />
  <sodipodi:namedview
     pagecolor="#ffffff"
     bordercolor="#666666"
     borderopacity="1"
     objecttolerance="10"
     gridtolerance="10"
     guidetolerance="10"
     inkscape:pageopacity="0"
     inkscape:pageshadow="2"
     inkscape:window-width="807"
     inkscape:window-height="480"
     id="namedview4576"
     showgrid="false"
     inkscape:zoom="7.375"
     inkscape:cx="16"
     inkscape:cy="16"
     inkscape:window-x="0"
     inkscape:window-y="27"
     inkscape:window-maximized="0"
     inkscape:current-layer="icon-fig" />
  <title
     id="title4459">fig</title>
  <path
     class="path1"
     fill="#8f687a"
     d="M22.535 8.945c-1.957-1.722-4.546-4.605-4.937-8.058-0.057-0.505-0.482-0.887-0.99-0.887h-1.434c-0.505 0-0.933 0.377-0.989 0.878-0.42 3.742-3.423 6.816-5.409 8.469-0.619 0.388-1.2 0.825-1.739 1.303-0.017 0.011-0.028 0.018-0.028 0.018h0.008c-2.524 2.252-4.102 5.44-4.102 8.978 0 6.823 5.859 12.354 13.086 12.354s13.086-5.531 13.086-12.354c-0-4.575-2.636-8.566-6.551-10.701z"
     id="path4461" />
  <path
     class="path2"
     fill="#ffe388"
     d="M23.241 11.123h0.008c0 0-0.011-0.007-0.027-0.017-0.511-0.441-1.060-0.843-1.646-1.2-1.956-1.582-4.953-4.579-5.156-8.212-0.012-0.22-0.199-0.389-0.419-0.389v0 0c-0.22 0-0.407 0.17-0.419 0.389-0.203 3.633-3.201 6.63-5.156 8.212-0.586 0.357-1.136 0.759-1.646 1.2-0.016 0.010-0.027 0.017-0.027 0.017h0.008c-2.39 2.073-3.883 5.006-3.883 8.262 0 3.455 1.373 6.52 3.95 8.599 4.156 3.351 10.151 3.431 14.255 0.017 2.531-2.106 4.043-5.23 4.043-8.615 0-3.256-1.494-6.189-3.883-8.262z"
     id="path4463" />
  <path
     class="path3"
     fill="#f97762"
     d="M24.448 20.001c0 4.352-3.782 7.88-8.448 7.88s-8.448-3.528-8.448-7.88c0-4.352 3.782-7.88 8.448-7.88s8.448 3.528 8.448 7.88z"
     id="path4465" />
  <path
     class="path4"
     fill="#d84b35"
     d="M17.423 16.231c0 0.424-0.344 0.768-0.768 0.768s-0.768-0.344-0.768-0.768c0-0.424 0.344-0.768 0.768-0.768s0.768 0.344 0.768 0.768z"
     id="path4467" />
  <path
     class="path5"
     fill="#d84b35"
     d="M19.012 16.231c0 0.424-0.344 0.768-0.768 0.768s-0.768-0.344-0.768-0.768c0-0.424 0.344-0.768 0.768-0.768s0.768 0.344 0.768 0.768z"
     id="path4469" />
  <path
     class="path6"
     fill="#d84b35"
     d="M18.191 19.351c0 0.424-0.344 0.768-0.768 0.768s-0.768-0.344-0.768-0.768c0-0.424 0.344-0.768 0.768-0.768s0.768 0.344 0.768 0.768z"
     id="path4471" />
  <path
     class="path7"
     fill="#d84b35"
     d="M19.917 17.776c0 0.424-0.344 0.768-0.768 0.768s-0.768-0.344-0.768-0.768c0-0.424 0.344-0.768 0.768-0.768s0.768 0.344 0.768 0.768z"
     id="path4473" />
  <path
     class="path8"
     fill="#d84b35"
     d="M21.453 17.682c0 0.424-0.344 0.768-0.768 0.768s-0.768-0.344-0.768-0.768c0-0.424 0.344-0.768 0.768-0.768s0.768 0.344 0.768 0.768z"
     id="path4475" />
  <path
     class="path9"
     fill="#d84b35"
     d="M19.917 14.656c0 0.424-0.344 0.768-0.768 0.768s-0.768-0.344-0.768-0.768c0-0.424 0.344-0.768 0.768-0.768s0.768 0.344 0.768 0.768z"
     id="path4477" />
  <path
     class="path10"
     fill="#d84b35"
     d="M16.943 17.78c0 0.424-0.344 0.768-0.768 0.768s-0.768-0.344-0.768-0.768c0-0.424 0.344-0.768 0.768-0.768s0.768 0.344 0.768 0.768z"
     id="path4479" />
  <path
     class="path11"
     fill="#d84b35"
     d="M16.656 20.902c0 0.424-0.344 0.768-0.768 0.768s-0.768-0.344-0.768-0.768c0-0.424 0.344-0.768 0.768-0.768s0.768 0.344 0.768 0.768z"
     id="path4481" />
  <path
     class="path12"
     fill="#d84b35"
     d="M16.943 22.477c0 0.424-0.344 0.768-0.768 0.768s-0.768-0.344-0.768-0.768c0-0.424 0.344-0.768 0.768-0.768s0.768 0.344 0.768 0.768z"
     id="path4483" />
  <path
     class="path13"
     fill="#d84b35"
     d="M19.917 20.902c0 0.424-0.344 0.768-0.768 0.768s-0.768-0.344-0.768-0.768c0-0.424 0.344-0.768 0.768-0.768s0.768 0.344 0.768 0.768z"
     id="path4485" />
  <path
     class="path14"
     fill="#d84b35"
     d="M19.101 24.012c0 0.424-0.344 0.768-0.768 0.768s-0.768-0.344-0.768-0.768c0-0.424 0.344-0.768 0.768-0.768s0.768 0.344 0.768 0.768z"
     id="path4487" />
  <path
     class="path15"
     fill="#d84b35"
     d="M19.78 19.351c0 0.424-0.344 0.768-0.768 0.768s-0.768-0.344-0.768-0.768c0-0.424 0.344-0.768 0.768-0.768s0.768 0.344 0.768 0.768z"
     id="path4489" />
  <path
     class="path16"
     fill="#d84b35"
     d="M19.012 13.338c0 0.424-0.344 0.768-0.768 0.768s-0.768-0.344-0.768-0.768c0-0.424 0.344-0.768 0.768-0.768s0.768 0.344 0.768 0.768z"
     id="path4491" />
  <path
     class="path17"
     fill="#d84b35"
     d="M18.477 22.477c0 0.424-0.344 0.768-0.768 0.768s-0.768-0.344-0.768-0.768c0-0.424 0.344-0.768 0.768-0.768s0.768 0.344 0.768 0.768z"
     id="path4493" />
  <path
     class="path18"
     fill="#d84b35"
     d="M21.453 20.902c0 0.424-0.344 0.768-0.768 0.768s-0.768-0.344-0.768-0.768c0-0.424 0.344-0.768 0.768-0.768s0.768 0.344 0.768 0.768z"
     id="path4495" />
  <path
     class="path19"
     fill="#d84b35"
     d="M21.453 22.477c0 0.424-0.344 0.768-0.768 0.768s-0.768-0.344-0.768-0.768c0-0.424 0.344-0.768 0.768-0.768s0.768 0.344 0.768 0.768z"
     id="path4497" />
  <path
     class="path20"
     fill="#d84b35"
     d="M19.243 26.665c0 0.424-0.344 0.768-0.768 0.768s-0.768-0.344-0.768-0.768c0-0.424 0.344-0.768 0.768-0.768s0.768 0.344 0.768 0.768z"
     id="path4499" />
  <path
     class="path21"
     fill="#d84b35"
     d="M20.685 24.012c0 0.424-0.344 0.768-0.768 0.768s-0.768-0.344-0.768-0.768c0-0.424 0.344-0.768 0.768-0.768s0.768 0.344 0.768 0.768z"
     id="path4501" />
  <path
     class="path22"
     fill="#d84b35"
     d="M18.336 25.365c0 0.424-0.344 0.768-0.768 0.768s-0.768-0.344-0.768-0.768c0-0.424 0.344-0.768 0.768-0.768s0.768 0.344 0.768 0.768z"
     id="path4503" />
  <path
     class="path23"
     fill="#d84b35"
     d="M23.755 21.709c0 0.424-0.344 0.768-0.768 0.768s-0.768-0.344-0.768-0.768c0-0.424 0.344-0.768 0.768-0.768s0.768 0.344 0.768 0.768z"
     id="path4505" />
  <path
     class="path24"
     fill="#d84b35"
     d="M23.755 18.606c0 0.424-0.344 0.768-0.768 0.768s-0.768-0.344-0.768-0.768c0-0.424 0.344-0.768 0.768-0.768s0.768 0.344 0.768 0.768z"
     id="path4507" />
  <path
     class="path25"
     fill="#d84b35"
     d="M22.988 23.391c0 0.424-0.344 0.768-0.768 0.768s-0.768-0.344-0.768-0.768c0-0.424 0.344-0.768 0.768-0.768s0.768 0.344 0.768 0.768z"
     id="path4509" />
  <path
     class="path26"
     fill="#d84b35"
     d="M23.454 16.74c0 0.424-0.344 0.768-0.768 0.768s-0.768-0.344-0.768-0.768c0-0.424 0.344-0.768 0.768-0.768s0.768 0.344 0.768 0.768z"
     id="path4511" />
  <path
     class="path27"
     fill="#d84b35"
     d="M21.453 15.655c0 0.424-0.344 0.768-0.768 0.768s-0.768-0.344-0.768-0.768c0-0.424 0.344-0.768 0.768-0.768s0.768 0.344 0.768 0.768z"
     id="path4513" />
  <path
     class="path28"
     fill="#d84b35"
     d="M21.453 25.722c0 0.424-0.344 0.768-0.768 0.768s-0.768-0.344-0.768-0.768c0-0.424 0.344-0.768 0.768-0.768s0.768 0.344 0.768 0.768z"
     id="path4515" />
  <path
     class="path29"
     fill="#d84b35"
     d="M22.22 19.351c0 0.424-0.344 0.768-0.768 0.768s-0.768-0.344-0.768-0.768c0-0.424 0.344-0.768 0.768-0.768s0.768 0.344 0.768 0.768z"
     id="path4517" />
  <path
     class="path30"
     fill="#d84b35"
     d="M12.242 17.876c0 0.424-0.344 0.768-0.768 0.768s-0.768-0.344-0.768-0.768c0-0.424 0.344-0.768 0.768-0.768s0.768 0.344 0.768 0.768z"
     id="path4519" />
  <path
     class="path31"
     fill="#d84b35"
     d="M13.83 17.876c0 0.424-0.344 0.768-0.768 0.768s-0.768-0.344-0.768-0.768c0-0.424 0.344-0.768 0.768-0.768s0.768 0.344 0.768 0.768z"
     id="path4521" />
  <path
     class="path32"
     fill="#d84b35"
     d="M13.009 14.754c0 0.424-0.344 0.768-0.768 0.768s-0.768-0.344-0.768-0.768c0-0.424 0.344-0.768 0.768-0.768s0.768 0.344 0.768 0.768z"
     id="path4523" />
  <path
     class="path33"
     fill="#d84b35"
     d="M14.736 16.33c0 0.424-0.344 0.768-0.768 0.768s-0.768-0.344-0.768-0.768c0-0.424 0.344-0.768 0.768-0.768s0.768 0.344 0.768 0.768z"
     id="path4525" />
  <path
     class="path34"
     fill="#d84b35"
     d="M9.939 17.192c0 0.424-0.344 0.768-0.768 0.768s-0.768-0.344-0.768-0.768c0-0.424 0.344-0.768 0.768-0.768s0.768 0.344 0.768 0.768z"
     id="path4527" />
  <path
     class="path35"
     fill="#d84b35"
     d="M14.736 19.451c0 0.424-0.344 0.768-0.768 0.768s-0.768-0.344-0.768-0.768c0-0.424 0.344-0.768 0.768-0.768s0.768 0.344 0.768 0.768z"
     id="path4529" />
  <path
     class="path36"
     fill="#d84b35"
     d="M11.761 16.326c0 0.424-0.344 0.768-0.768 0.768s-0.768-0.344-0.768-0.768c0-0.424 0.344-0.768 0.768-0.768s0.768 0.344 0.768 0.768z"
     id="path4531" />
  <path
     class="path37"
     fill="#d84b35"
     d="M10.706 21.709c0 0.424-0.344 0.768-0.768 0.768s-0.768-0.344-0.768-0.768c0-0.424 0.344-0.768 0.768-0.768s0.768 0.344 0.768 0.768z"
     id="path4533" />
  <path
     class="path38"
     fill="#d84b35"
     d="M10.706 24.159c0 0.424-0.344 0.768-0.768 0.768s-0.768-0.344-0.768-0.768c0-0.424 0.344-0.768 0.768-0.768s0.768 0.344 0.768 0.768z"
     id="path4535" />
  <path
     class="path39"
     fill="#d84b35"
     d="M15.503 13.205c0 0.424-0.344 0.768-0.768 0.768s-0.768-0.344-0.768-0.768c0-0.424 0.344-0.768 0.768-0.768s0.768 0.344 0.768 0.768z"
     id="path4537" />
  <path
     class="path40"
     fill="#d84b35"
     d="M15.366 21.709c0 0.424-0.344 0.768-0.768 0.768s-0.768-0.344-0.768-0.768c0-0.424 0.344-0.768 0.768-0.768s0.768 0.344 0.768 0.768z"
     id="path4539" />
  <path
     class="path41"
     fill="#d84b35"
     d="M14.598 14.754c0 0.424-0.344 0.768-0.768 0.768s-0.768-0.344-0.768-0.768c0-0.424 0.344-0.768 0.768-0.768s0.768 0.344 0.768 0.768z"
     id="path4541" />
  <path
     class="path42"
     fill="#d84b35"
     d="M13.83 20.769c0 0.424-0.344 0.768-0.768 0.768s-0.768-0.344-0.768-0.768c0-0.424 0.344-0.768 0.768-0.768s0.768 0.344 0.768 0.768z"
     id="path4543" />
  <path
     class="path43"
     fill="#d84b35"
     d="M13.009 22.477c0 0.424-0.344 0.768-0.768 0.768s-0.768-0.344-0.768-0.768c0-0.424 0.344-0.768 0.768-0.768s0.768 0.344 0.768 0.768z"
     id="path4545" />
  <path
     class="path44"
     fill="#d84b35"
     d="M16.271 14.656c0 0.424-0.344 0.768-0.768 0.768s-0.768-0.344-0.768-0.768c0-0.424 0.344-0.768 0.768-0.768s0.768 0.344 0.768 0.768z"
     id="path4547" />
  <path
     class="path45"
     fill="#d84b35"
     d="M14.736 23.83c0 0.424-0.344 0.768-0.768 0.768s-0.768-0.344-0.768-0.768c0-0.424 0.344-0.768 0.768-0.768s0.768 0.344 0.768 0.768z"
     id="path4549" />
  <path
     class="path46"
     fill="#d84b35"
     d="M11.474 19.451c0 0.424-0.344 0.768-0.768 0.768s-0.768-0.344-0.768-0.768c0-0.424 0.344-0.768 0.768-0.768s0.768 0.344 0.768 0.768z"
     id="path4551" />
  <path
     class="path47"
     fill="#d84b35"
     d="M12.046 20.942c0 0.424-0.344 0.768-0.768 0.768s-0.768-0.344-0.768-0.768c0-0.424 0.344-0.768 0.768-0.768s0.768 0.344 0.768 0.768z"
     id="path4553" />
  <path
     class="path48"
     fill="#d84b35"
     d="M9.171 19.451c0 0.424-0.344 0.768-0.768 0.768s-0.768-0.344-0.768-0.768c0-0.424 0.344-0.768 0.768-0.768s0.768 0.344 0.768 0.768z"
     id="path4555" />
  <path
     class="path49"
     fill="#d84b35"
     d="M16.271 26.9c0 0.424-0.344 0.768-0.768 0.768s-0.768-0.344-0.768-0.768c0-0.424 0.344-0.768 0.768-0.768s0.768 0.344 0.768 0.768z"
     id="path4557" />
  <path
     class="path50"
     fill="#d84b35"
     d="M13.201 24.598c0 0.424-0.344 0.768-0.768 0.768s-0.768-0.344-0.768-0.768c0-0.424 0.344-0.768 0.768-0.768s0.768 0.344 0.768 0.768z"
     id="path4559" />
  <path
     class="path51"
     fill="#d84b35"
     d="M13.062 26.133c0 0.424-0.344 0.768-0.768 0.768s-0.768-0.344-0.768-0.768c0-0.424 0.344-0.768 0.768-0.768s0.768 0.344 0.768 0.768z"
     id="path4561" />
  <path
     class="path52"
     fill="#d84b35"
     d="M16.271 24.012c0 0.424-0.344 0.768-0.768 0.768s-0.768-0.344-0.768-0.768c0-0.424 0.344-0.768 0.768-0.768s0.768 0.344 0.768 0.768z"
     id="path4563" />
  <path
     class="path53"
     fill="#d84b35"
     d="M14.736 26.133c0 0.424-0.344 0.768-0.768 0.768s-0.768-0.344-0.768-0.768c0-0.424 0.344-0.768 0.768-0.768s0.768 0.344 0.768 0.768z"
     id="path4565" />
  <path
     class="path54"
     fill="#000"
     opacity="0.1"
     d="M12.433 8.046c-3.392 2.929-6.831 5.381-7.369 9.964-0.549 4.686 1.856 9.292 6.090 11.373 2.852 1.402 7.023 2 12.942-0.036 0.232-0.173 0.459-0.35 0.678-0.537-5.416 1.565-9.291 0.992-11.987-0.259-4.234-1.966-6.639-6.317-6.090-10.742 0.538-4.329 3.976-6.646 7.369-9.412 3.001-2.447 3.393-5.921 3.302-8.040-0.184-0.219-0.457-0.358-0.761-0.358h-0.862c0.016 2.262-0.51 5.627-3.312 8.046z"
     id="path4567" />
  <path
     class="path55"
     fill="#000"
     opacity="0.2"
     d="M11.154 29.384c-4.234-2.081-6.639-6.688-6.090-11.373 0.538-4.583 3.976-7.035 7.369-9.964 2.802-2.419 3.328-5.784 3.312-8.046h-0.572c-0.505 0-0.933 0.377-0.989 0.878-0.42 3.742-3.423 6.816-5.409 8.469-0.619 0.388-1.2 0.825-1.739 1.303-0.017 0.011-0.028 0.018-0.028 0.018h0.008c-2.524 2.252-4.102 5.44-4.102 8.978 0 6.823 5.859 12.354 13.086 12.354 3.058 0 5.868-0.993 8.096-2.652-5.919 2.036-10.090 1.438-12.942 0.036z"
     id="path4569" />
  <path
     class="path56"
     fill="#fff"
     opacity="0.3"
     d="M26.097 12.606c0 0.859-0.696 1.555-1.555 1.555s-1.555-0.696-1.555-1.555c0-0.859 0.696-1.555 1.555-1.555s1.555 0.696 1.555 1.555z"
     id="path4571" />
  <path
     class="path57"
     fill="#fff"
     opacity="0.3"
     d="M27.165 15.949c0 0.429-0.348 0.778-0.778 0.778s-0.778-0.348-0.778-0.778c0-0.429 0.348-0.778 0.778-0.778s0.778 0.348 0.778 0.778z"
     id="path4573" />
</svg>
