<?xml version="1.0" encoding="UTF-8" standalone="no"?>
<svg
   xmlns:dc="http://purl.org/dc/elements/1.1/"
   xmlns:cc="http://creativecommons.org/ns#"
   xmlns:rdf="http://www.w3.org/1999/02/22-rdf-syntax-ns#"
   xmlns:svg="http://www.w3.org/2000/svg"
   xmlns="http://www.w3.org/2000/svg"
   xmlns:sodipodi="http://sodipodi.sourceforge.net/DTD/sodipodi-0.dtd"
   xmlns:inkscape="http://www.inkscape.org/namespaces/inkscape"
   id="icon-peach"
   viewBox="0 0 32 32"
   version="1.1"
   sodipodi:docname="peach.svg"
   inkscape:version="0.92.3 (2405546, 2018-03-11)">
  <metadata
     id="metadata5768">
    <rdf:RDF>
      <cc:Work
         rdf:about="">
        <dc:format>image/svg+xml</dc:format>
        <dc:type
           rdf:resource="http://purl.org/dc/dcmitype/StillImage" />
        <dc:title>peach</dc:title>
      </cc:Work>
    </rdf:RDF>
  </metadata>
  <defs
     id="defs5766" />
  <sodipodi:namedview
     pagecolor="#ffffff"
     bordercolor="#666666"
     borderopacity="1"
     objecttolerance="10"
     gridtolerance="10"
     guidetolerance="10"
     inkscape:pageopacity="0"
     inkscape:pageshadow="2"
     inkscape:window-width="807"
     inkscape:window-height="480"
     id="namedview5764"
     showgrid="false"
     inkscape:zoom="7.375"
     inkscape:cx="16"
     inkscape:cy="16"
     inkscape:window-x="0"
     inkscape:window-y="27"
     inkscape:window-maximized="0"
     inkscape:current-layer="icon-peach" />
  <title
     id="title5741">peach</title>
  <path
     class="path1"
     fill="#f46c51"
     d="M31.943 13.757c0.158-1.714-0.010-3.451-0.583-5.074-1.408-3.991-4.75-6.657-9.093-6.657-2.379 0-4.558 0.853-6.251 2.268-1.698-1.43-3.889-2.292-6.282-2.292-4.492 0-7.93 2.69-9.239 6.993-0.464 1.526-0.583 3.134-0.438 4.722 0.415 4.519 2.084 14.895 15.719 16.229v0.053c0.141-0.007 0.277-0.017 0.416-0.026 0.011 0 0.021 0.002 0.032 0.002v-0.004c12.949-0.667 15.299-11.683 15.718-16.212z"
     id="path5743" />
  <path
     class="path2"
     fill="#ffd77d"
     d="M21.912 3.936c-2.118 0.001-4.424 1.25-5.91 2.371-1.539-1.173-3.334-2.165-5.501-2.371-4.668-0.443-8.359 3.119-8.356 8.493 0 0-0.375 14.541 13.681 15.732v0c14.034-0.326 14.034-15.636 14.034-15.636 0.003-5.374-3.365-8.589-7.947-8.588z"
     id="path5745" />
  <path
     class="path3"
     fill="#edbb4a"
     d="M16.002 9.506c0 0-9.221 7.003-0.002 14.956 9.219-7.954 0.002-14.956 0.002-14.956z"
     id="path5747" />
  <path
     class="path4"
     fill="#a05f32"
     d="M16.002 11.242c0 0-7.079 5.376-0.001 11.483 7.078-6.106 0.001-11.483 0.001-11.483z"
     id="path5749" />
  <path
     class="path5"
     fill="#ce8e63"
     d="M17.643 14.477c0 0.454-0.368 0.821-0.821 0.821s-0.821-0.368-0.821-0.821c0-0.454 0.368-0.821 0.821-0.821s0.821 0.368 0.821 0.821z"
     id="path5751" />
  <path
     class="path6"
     fill="#ce8e63"
     d="M18.052 16.14c0 0.227-0.184 0.411-0.411 0.411s-0.411-0.184-0.411-0.411c0-0.227 0.184-0.411 0.411-0.411s0.411 0.184 0.411 0.411z"
     id="path5753" />
  <path
     class="path7"
     fill="#000"
     opacity="0.1"
     d="M4.189 11.242c1.188-6.683 6.833-6.282 9.87-5.547 1.030 0.249 2.037-0.482 2.129-1.538v0c-0.057 0.046-0.115 0.090-0.171 0.137 0 0-9.464-3.889-12.953 3.899-0.778 1.736-1.038 3.657-0.865 5.551 0.438 4.806 3.101 14.923 17.654 15.718 0.448-0.107 0.88-0.227 1.295-0.362-11.746 0.046-18.26-10.535-16.959-17.857z"
     id="path5755" />
  <path
     class="path8"
     fill="#000"
     opacity="0.2"
     d="M2.199 13.744c-0.173-1.895 0.087-3.815 0.865-5.551 3.489-7.788 12.953-3.899 12.953-3.899-1.698-1.43-3.889-2.292-6.282-2.292-4.492 0-7.93 2.69-9.239 6.993-0.464 1.526-0.583 3.134-0.438 4.722 0.415 4.519 2.084 14.895 15.719 16.229v0.053c0.141-0.007 0.277-0.017 0.416-0.026 0.011 0 0.021 0.002 0.032 0.002v-0.004c1.316-0.068 2.521-0.244 3.627-0.508-14.552-0.795-17.215-10.913-17.653-15.718z"
     id="path5757" />
  <path
     class="path9"
     fill="#fff"
     opacity="0.3"
     d="M28.673 5.627c0 0.955-0.774 1.729-1.729 1.729s-1.729-0.774-1.729-1.729c0-0.955 0.774-1.729 1.729-1.729s1.729 0.774 1.729 1.729z"
     id="path5759" />
  <path
     class="path10"
     fill="#fff"
     opacity="0.3"
     d="M29.861 9.342c0 0.477-0.387 0.864-0.864 0.864s-0.864-0.387-0.864-0.864c0-0.477 0.387-0.864 0.864-0.864s0.864 0.387 0.864 0.864z"
     id="path5761" />
</svg>
