<?xml version="1.0" encoding="UTF-8" standalone="no"?>
<svg
   xmlns:dc="http://purl.org/dc/elements/1.1/"
   xmlns:cc="http://creativecommons.org/ns#"
   xmlns:rdf="http://www.w3.org/1999/02/22-rdf-syntax-ns#"
   xmlns:svg="http://www.w3.org/2000/svg"
   xmlns="http://www.w3.org/2000/svg"
   xmlns:sodipodi="http://sodipodi.sourceforge.net/DTD/sodipodi-0.dtd"
   xmlns:inkscape="http://www.inkscape.org/namespaces/inkscape"
   id="icon-pineapple"
   viewBox="0 0 32 32"
   version="1.1"
   sodipodi:docname="pineapple.svg"
   inkscape:version="0.92.3 (2405546, 2018-03-11)">
  <metadata
     id="metadata6134">
    <rdf:RDF>
      <cc:Work
         rdf:about="">
        <dc:format>image/svg+xml</dc:format>
        <dc:type
           rdf:resource="http://purl.org/dc/dcmitype/StillImage" />
        <dc:title>pineapple</dc:title>
      </cc:Work>
    </rdf:RDF>
  </metadata>
  <defs
     id="defs6132" />
  <sodipodi:namedview
     pagecolor="#ffffff"
     bordercolor="#666666"
     borderopacity="1"
     objecttolerance="10"
     gridtolerance="10"
     guidetolerance="10"
     inkscape:pageopacity="0"
     inkscape:pageshadow="2"
     inkscape:window-width="807"
     inkscape:window-height="480"
     id="namedview6130"
     showgrid="false"
     inkscape:zoom="7.375"
     inkscape:cx="16"
     inkscape:cy="16"
     inkscape:window-x="0"
     inkscape:window-y="27"
     inkscape:window-maximized="0"
     inkscape:current-layer="icon-pineapple" />
  <title
     id="title6037">pineapple</title>
  <path
     class="path1"
     fill="#ada323"
     d="M21.251 4.611c0 0-1.473-1.157-2.926 0 0 0 0.91-2.303 2.926-3.869 0 0-2.558-0.046-3.764 2.229 0 0 0.060-2.171-1.421-2.971-1.481 0.8-1.421 2.971-1.421 2.971-1.206-2.274-3.765-2.229-3.765-2.229 2.016 1.566 2.926 3.869 2.926 3.869-1.453-1.157-2.926 0-2.926 0 2.085 0.675 2.593 1.857 2.593 1.857-2.010-0.627-2.593 1.24-2.593 1.24 2.446 0.396 5.185 2.988 5.185 2.988s2.739-2.592 5.185-2.988c0 0-0.583-1.867-2.593-1.24 0 0 0.508-1.182 2.593-1.857z"
     id="path6039" />
  <path
     class="path2"
     fill="#db8f21"
     d="M9.206 12.297l1.245 1.245c0.22 0.22 0.236 0.573 0.035 0.811l-1.284 1.528c-0.237 0.283-0.671 0.286-0.913 0.008l-1.186-1.364c-0.028-0.032-0.051-0.067-0.072-0.103-0.116 0.216-0.227 0.436-0.331 0.661l0.961 0.961c0.22 0.22 0.236 0.573 0.035 0.811l-1.284 1.528c-0.185 0.22-0.488 0.27-0.728 0.151-0.061 0.422-0.101 0.852-0.12 1.288 0.146 0.005 0.291 0.063 0.403 0.175l1.245 1.245c0.22 0.22 0.236 0.573 0.035 0.811l-1.284 1.528c-0.003 0.003-0.006 0.006-0.008 0.009 0.439 1.703 1.219 3.246 2.252 4.532 0.233-0.166 0.561-0.147 0.772 0.065l1.245 1.245c0.191 0.191 0.227 0.481 0.103 0.711 0.808 0.582 1.693 1.043 2.634 1.36-0.018-0.016-0.036-0.034-0.052-0.053l-1.186-1.364c-0.197-0.226-0.197-0.562 0-0.788l1.225-1.409c0.228-0.263 0.632-0.277 0.878-0.031l1.245 1.245c0.22 0.22 0.236 0.573 0.035 0.811l-1.283 1.528c-0.101 0.121-0.238 0.19-0.381 0.209 0.246 0.069 0.496 0.128 0.749 0.177 0.024-0.077 0.064-0.151 0.12-0.215l1.225-1.409c0.228-0.263 0.632-0.277 0.878-0.031l1.245 1.245c0.112 0.111 0.17 0.257 0.175 0.404 0.689-0.136 1.355-0.347 1.99-0.625l0.887-1.020c0.228-0.263 0.632-0.277 0.878-0.031l0.031 0.031c0.109-0.077 0.216-0.158 0.322-0.239-0.042-0.182 0.002-0.379 0.132-0.529l1.225-1.409c0.18-0.207 0.469-0.259 0.704-0.151 0.924-1.224 1.625-2.662 2.035-4.238-0.033-0.025-0.064-0.053-0.092-0.086l-1.186-1.364c-0.197-0.226-0.197-0.562 0-0.788l1.225-1.409c0.118-0.136 0.283-0.204 0.448-0.206-0.016-0.329-0.044-0.654-0.084-0.975-0.149-0.012-0.295-0.080-0.403-0.204l-1.186-1.364c-0.197-0.226-0.197-0.562 0-0.788l0.75-0.863c-0.079-0.194-0.164-0.384-0.252-0.572l-1.083 1.289c-0.237 0.283-0.671 0.286-0.913 0.008l-1.186-1.364c-0.197-0.226-0.197-0.562 0-0.788l1.225-1.409c0.106-0.122 0.249-0.189 0.397-0.203-0.286-0.347-0.592-0.674-0.914-0.98-0.012 0.115-0.057 0.228-0.137 0.323l-1.284 1.528c-0.237 0.283-0.671 0.286-0.913 0.008l-1.186-1.364c-0.197-0.226-0.197-0.562 0-0.788l1.198-1.378c-0.201-0.105-0.404-0.205-0.612-0.296l-1.207 1.437c-0.238 0.283-0.671 0.286-0.913 0.008l-1.186-1.364c-0.197-0.226-0.197-0.562 0-0.788l0.074-0.086c-0.204-0.013-0.41-0.021-0.617-0.021-0.071 0-0.142 0.001-0.213 0.003-0.020 0.093-0.062 0.182-0.127 0.259l-1.284 1.528c-0.237 0.283-0.671 0.286-0.913 0.008l-0.977-1.123c-0.199 0.079-0.396 0.164-0.589 0.256l1.139 1.139c0.22 0.22 0.236 0.573 0.035 0.811l-1.284 1.528c-0.237 0.283-0.671 0.286-0.913 0.008l-1.186-1.364c-0.147-0.169-0.184-0.399-0.112-0.598-0.33 0.286-0.643 0.594-0.94 0.921 0.196-0.047 0.412 0.005 0.567 0.159zM6.55 19.933c-0.197-0.226-0.197-0.562 0-0.788l1.225-1.409c0.228-0.263 0.632-0.277 0.878-0.031l1.245 1.245c0.22 0.22 0.235 0.573 0.035 0.811l-1.283 1.528c-0.237 0.283-0.671 0.286-0.913 0.008l-1.186-1.364zM16.899 24.082l1.225-1.409c0.228-0.263 0.632-0.277 0.878-0.031l1.245 1.245c0.22 0.22 0.236 0.573 0.035 0.811l-1.284 1.528c-0.237 0.283-0.671 0.287-0.913 0.008l-1.186-1.364c-0.197-0.226-0.197-0.562 0-0.788zM16.411 23.838c-0.237 0.283-0.671 0.286-0.913 0.008l-1.186-1.364c-0.197-0.226-0.197-0.562 0-0.788l1.225-1.409c0.228-0.263 0.632-0.277 0.878-0.031l1.245 1.245c0.22 0.22 0.236 0.573 0.035 0.811l-1.284 1.528zM19.487 22.161c-0.197-0.226-0.197-0.562 0-0.788l1.225-1.409c0.228-0.263 0.632-0.277 0.878-0.031l1.245 1.245c0.22 0.22 0.236 0.573 0.035 0.811l-1.284 1.528c-0.237 0.283-0.671 0.286-0.913 0.008l-1.186-1.364zM20.282 19.602l-1.284 1.528c-0.237 0.283-0.671 0.286-0.913 0.008l-1.186-1.364c-0.197-0.226-0.197-0.562 0-0.788l1.225-1.409c0.228-0.263 0.632-0.277 0.878-0.031l1.245 1.245c0.22 0.221 0.236 0.573 0.035 0.811zM17.695 17.053l-1.284 1.528c-0.237 0.283-0.671 0.286-0.913 0.008l-1.186-1.364c-0.197-0.226-0.197-0.562 0-0.788l1.225-1.409c0.228-0.263 0.632-0.277 0.878-0.031l1.245 1.245c0.22 0.221 0.236 0.573 0.035 0.811zM15.072 18.951c0.22 0.22 0.236 0.573 0.035 0.811l-1.283 1.528c-0.237 0.283-0.671 0.286-0.913 0.008l-1.186-1.364c-0.197-0.226-0.197-0.562 0-0.788l1.225-1.409c0.228-0.263 0.632-0.277 0.878-0.031l1.245 1.245zM12.485 21.339c0.22 0.22 0.236 0.573 0.035 0.811l-1.283 1.528c-0.238 0.283-0.671 0.286-0.913 0.008l-1.186-1.364c-0.197-0.226-0.197-0.562 0-0.788l1.225-1.409c0.228-0.263 0.632-0.277 0.878-0.031l1.245 1.245zM8.65 26.227c-0.237 0.283-0.671 0.287-0.913 0.008l-1.186-1.364c-0.197-0.226-0.197-0.562 0-0.788l1.225-1.409c0.228-0.263 0.632-0.277 0.878-0.031l1.245 1.245c0.22 0.22 0.235 0.573 0.035 0.811l-1.283 1.528zM12.52 27.408l-1.283 1.528c-0.238 0.283-0.671 0.286-0.913 0.008l-1.186-1.364c-0.197-0.226-0.197-0.562 0-0.788l1.225-1.409c0.228-0.263 0.632-0.277 0.878-0.031l1.245 1.245c0.22 0.22 0.236 0.573 0.035 0.811zM13.824 26.227c-0.237 0.283-0.671 0.287-0.913 0.008l-1.186-1.364c-0.197-0.226-0.197-0.562 0-0.788l1.225-1.409c0.228-0.263 0.632-0.277 0.878-0.031l1.245 1.245c0.22 0.22 0.236 0.573 0.035 0.811l-1.283 1.528zM16.411 28.615c-0.237 0.283-0.671 0.286-0.913 0.008l-1.186-1.364c-0.197-0.226-0.197-0.562 0-0.788l1.225-1.409c0.228-0.263 0.632-0.277 0.878-0.031l1.245 1.245c0.22 0.22 0.236 0.573 0.035 0.811l-1.284 1.528zM20.282 29.796l-1.284 1.528c-0.237 0.283-0.671 0.286-0.913 0.008l-1.186-1.364c-0.197-0.226-0.197-0.562 0-0.788l1.225-1.409c0.228-0.263 0.632-0.277 0.878-0.031l1.245 1.245c0.22 0.22 0.236 0.573 0.035 0.811zM22.869 27.408l-1.284 1.528c-0.237 0.283-0.671 0.286-0.913 0.008l-1.186-1.364c-0.197-0.226-0.197-0.562 0-0.788l1.225-1.409c0.228-0.263 0.632-0.277 0.878-0.031l1.245 1.245c0.22 0.22 0.236 0.573 0.035 0.811zM25.422 23.888c0.22 0.22 0.236 0.573 0.035 0.811l-1.284 1.528c-0.237 0.283-0.671 0.287-0.913 0.008l-1.186-1.364c-0.197-0.226-0.197-0.562 0-0.788l1.225-1.409c0.229-0.263 0.632-0.277 0.878-0.031l1.245 1.245zM23.299 17.576c0.229-0.263 0.632-0.277 0.878-0.031l1.245 1.245c0.22 0.22 0.236 0.573 0.035 0.811l-1.284 1.528c-0.237 0.283-0.671 0.286-0.913 0.008l-1.186-1.364c-0.197-0.226-0.197-0.562 0-0.788l1.225-1.408zM20.711 15.188c0.228-0.263 0.632-0.277 0.878-0.031l1.245 1.245c0.22 0.22 0.236 0.572 0.035 0.811l-1.284 1.528c-0.237 0.283-0.671 0.286-0.913 0.008l-1.186-1.364c-0.197-0.226-0.197-0.562 0-0.788l1.225-1.409zM19.002 12.609l1.245 1.245c0.22 0.22 0.236 0.573 0.035 0.811l-1.284 1.528c-0.237 0.283-0.671 0.286-0.913 0.008l-1.186-1.364c-0.197-0.226-0.197-0.562 0-0.788l1.225-1.409c0.229-0.263 0.632-0.277 0.878-0.030zM14.312 11.66l1.225-1.409c0.228-0.263 0.632-0.277 0.878-0.031l1.245 1.245c0.22 0.22 0.236 0.573 0.035 0.811l-1.284 1.528c-0.237 0.283-0.671 0.286-0.913 0.008l-1.186-1.364c-0.197-0.226-0.197-0.562 0-0.788zM11.725 14.048l1.225-1.409c0.228-0.263 0.632-0.277 0.878-0.031l1.245 1.245c0.22 0.22 0.236 0.573 0.035 0.811l-1.283 1.528c-0.237 0.283-0.671 0.286-0.913 0.008l-1.186-1.364c-0.197-0.226-0.197-0.562 0-0.788zM11.24 15.318l1.245 1.245c0.22 0.22 0.236 0.573 0.035 0.811l-1.283 1.528c-0.238 0.283-0.671 0.286-0.913 0.008l-1.186-1.364c-0.197-0.226-0.197-0.562 0-0.788l1.225-1.409c0.229-0.263 0.632-0.277 0.878-0.030z"
     id="path6041" />
  <path
     class="path3"
     fill="#f7b202"
     d="M15.498 13.812c0.242 0.278 0.676 0.275 0.913-0.008l1.284-1.528c0.2-0.239 0.185-0.591-0.035-0.811l-1.245-1.245c-0.246-0.246-0.65-0.232-0.878 0.031l-1.225 1.409c-0.197 0.226-0.197 0.562 0 0.788l1.186 1.364z"
     id="path6043" />
  <path
     class="path4"
     fill="#f7b202"
     d="M12.911 16.201c0.242 0.278 0.676 0.275 0.913-0.008l1.283-1.528c0.2-0.239 0.185-0.591-0.035-0.811l-1.245-1.245c-0.246-0.246-0.65-0.232-0.878 0.031l-1.225 1.409c-0.197 0.226-0.197 0.562 0 0.788l1.186 1.364z"
     id="path6045" />
  <path
     class="path5"
     fill="#f7b202"
     d="M16.899 14.836l1.186 1.364c0.242 0.278 0.676 0.275 0.913-0.008l1.284-1.528c0.2-0.239 0.185-0.591-0.035-0.811l-1.245-1.245c-0.246-0.246-0.65-0.232-0.878 0.031l-1.225 1.409c-0.197 0.226-0.197 0.562-0 0.788z"
     id="path6047" />
  <path
     class="path6"
     fill="#f7b202"
     d="M16.415 14.997c-0.246-0.246-0.65-0.232-0.878 0.031l-1.225 1.409c-0.197 0.226-0.197 0.562 0 0.788l1.186 1.364c0.242 0.278 0.676 0.275 0.913-0.008l1.284-1.528c0.2-0.239 0.185-0.591-0.035-0.811l-1.245-1.245z"
     id="path6049" />
  <path
     class="path7"
     fill="#f7b202"
     d="M10.362 15.348l-1.225 1.409c-0.197 0.226-0.197 0.562 0 0.788l1.186 1.364c0.242 0.278 0.676 0.275 0.913-0.008l1.283-1.528c0.2-0.239 0.185-0.591-0.035-0.811l-1.245-1.245c-0.246-0.246-0.65-0.232-0.878 0.030z"
     id="path6051" />
  <path
     class="path8"
     fill="#f7b202"
     d="M8.65 21.29l1.283-1.528c0.2-0.239 0.185-0.591-0.035-0.811l-1.245-1.245c-0.246-0.246-0.65-0.232-0.878 0.031l-1.225 1.409c-0.197 0.226-0.197 0.562 0 0.788l1.186 1.364c0.242 0.278 0.676 0.275 0.913-0.008z"
     id="path6053" />
  <path
     class="path9"
     fill="#f7b202"
     d="M12.95 17.736l-1.225 1.409c-0.197 0.226-0.197 0.562 0 0.788l1.186 1.364c0.242 0.278 0.676 0.275 0.913-0.008l1.283-1.528c0.2-0.239 0.185-0.591-0.035-0.811l-1.245-1.245c-0.246-0.246-0.65-0.232-0.878 0.030z"
     id="path6055" />
  <path
     class="path10"
     fill="#f7b202"
     d="M10.362 20.125l-1.225 1.409c-0.197 0.226-0.197 0.562 0 0.788l1.186 1.364c0.242 0.278 0.676 0.275 0.913-0.008l1.283-1.528c0.2-0.239 0.185-0.591-0.035-0.811l-1.245-1.245c-0.246-0.246-0.65-0.232-0.878 0.030z"
     id="path6057" />
  <path
     class="path11"
     fill="#f7b202"
     d="M19.487 17.385l1.186 1.364c0.242 0.278 0.676 0.275 0.913-0.008l1.284-1.528c0.2-0.239 0.185-0.591-0.035-0.811l-1.245-1.245c-0.246-0.246-0.65-0.232-0.878 0.031l-1.225 1.409c-0.197 0.226-0.197 0.562-0 0.788z"
     id="path6059" />
  <path
     class="path12"
     fill="#f7b202"
     d="M19.002 17.546c-0.246-0.246-0.65-0.232-0.878 0.031l-1.225 1.409c-0.197 0.226-0.197 0.562 0 0.788l1.186 1.364c0.242 0.279 0.676 0.275 0.913-0.008l1.284-1.528c0.2-0.239 0.185-0.591-0.035-0.811l-1.245-1.245z"
     id="path6061" />
  <path
     class="path13"
     fill="#f7b202"
     d="M22.074 19.773l1.186 1.364c0.242 0.279 0.676 0.275 0.913-0.008l1.284-1.528c0.2-0.239 0.185-0.591-0.035-0.811l-1.245-1.245c-0.246-0.246-0.65-0.232-0.878 0.031l-1.225 1.409c-0.197 0.226-0.197 0.562 0 0.788z"
     id="path6063" />
  <path
     class="path14"
     fill="#f7b202"
     d="M21.586 23.518l1.284-1.528c0.2-0.238 0.185-0.591-0.035-0.811l-1.245-1.245c-0.246-0.246-0.65-0.232-0.878 0.031l-1.225 1.409c-0.197 0.226-0.197 0.562 0 0.788l1.186 1.364c0.242 0.279 0.676 0.275 0.913-0.008z"
     id="path6065" />
  <path
     class="path15"
     fill="#f7b202"
     d="M17.66 21.499l-1.245-1.245c-0.246-0.246-0.65-0.232-0.878 0.031l-1.225 1.409c-0.197 0.226-0.197 0.562 0 0.788l1.186 1.364c0.242 0.279 0.676 0.275 0.913-0.008l1.284-1.528c0.2-0.239 0.185-0.591-0.035-0.811z"
     id="path6067" />
  <path
     class="path16"
     fill="#f7b202"
     d="M15.072 23.888l-1.245-1.245c-0.246-0.246-0.65-0.232-0.878 0.031l-1.225 1.409c-0.197 0.226-0.197 0.562 0 0.788l1.186 1.364c0.242 0.279 0.676 0.275 0.913-0.008l1.283-1.528c0.2-0.239 0.185-0.591-0.035-0.811z"
     id="path6069" />
  <path
     class="path17"
     fill="#f7b202"
     d="M18.086 26.235c0.242 0.279 0.676 0.275 0.913-0.008l1.284-1.528c0.2-0.239 0.185-0.591-0.035-0.811l-1.245-1.245c-0.246-0.246-0.65-0.232-0.878 0.031l-1.225 1.409c-0.197 0.226-0.197 0.562 0 0.788l1.186 1.364z"
     id="path6071" />
  <path
     class="path18"
     fill="#f7b202"
     d="M17.66 26.276l-1.245-1.245c-0.246-0.246-0.65-0.232-0.878 0.031l-1.225 1.409c-0.197 0.226-0.197 0.562 0 0.788l1.186 1.364c0.242 0.279 0.676 0.275 0.913-0.008l1.284-1.528c0.2-0.239 0.185-0.591-0.035-0.811z"
     id="path6073" />
  <path
     class="path19"
     fill="#f7b202"
     d="M23.299 12.729l-1.225 1.409c-0.197 0.226-0.197 0.562 0 0.788l1.186 1.364c0.242 0.278 0.676 0.275 0.913-0.008l1.083-1.289c-0.424-0.898-0.949-1.727-1.561-2.467-0.148 0.014-0.291 0.081-0.397 0.203z"
     id="path6075" />
  <path
     class="path20"
     fill="#f7b202"
     d="M23.299 22.673l-1.225 1.409c-0.197 0.226-0.197 0.562 0 0.788l1.186 1.364c0.242 0.279 0.676 0.275 0.913-0.008l1.284-1.528c0.2-0.239 0.185-0.591-0.035-0.811l-1.245-1.245c-0.246-0.246-0.65-0.232-0.878 0.030z"
     id="path6077" />
  <path
     class="path21"
     fill="#f7b202"
     d="M9.898 23.888l-1.245-1.245c-0.246-0.246-0.65-0.232-0.878 0.031l-1.225 1.409c-0.197 0.226-0.197 0.562 0 0.788l1.186 1.364c0.242 0.279 0.676 0.275 0.913-0.008l1.283-1.528c0.2-0.239 0.185-0.591-0.035-0.811z"
     id="path6079" />
  <path
     class="path22"
     fill="#f7b202"
     d="M9.69 11.815l1.186 1.364c0.242 0.279 0.676 0.275 0.913-0.008l1.284-1.528c0.2-0.239 0.185-0.591-0.035-0.811l-1.139-1.139c-0.835 0.397-1.614 0.911-2.32 1.524-0.072 0.2-0.035 0.43 0.112 0.598z"
     id="path6081" />
  <path
     class="path23"
     fill="#f7b202"
     d="M21.59 25.352c-0.246-0.246-0.65-0.232-0.878 0.031l-1.225 1.409c-0.197 0.226-0.197 0.562 0 0.788l1.186 1.364c0.242 0.278 0.676 0.275 0.913-0.008l1.284-1.528c0.2-0.239 0.185-0.591-0.035-0.811l-1.245-1.245z"
     id="path6083" />
  <path
     class="path24"
     fill="#f7b202"
     d="M19.002 27.74c-0.246-0.246-0.65-0.232-0.878 0.031l-1.225 1.409c-0.197 0.226-0.197 0.562 0 0.788l1.186 1.364c0.242 0.278 0.676 0.275 0.913-0.008l1.284-1.528c0.2-0.239 0.185-0.591-0.035-0.811l-1.245-1.245z"
     id="path6085" />
  <path
     class="path25"
     fill="#f7b202"
     d="M8.289 15.889c0.242 0.279 0.676 0.275 0.913-0.008l1.284-1.528c0.2-0.239 0.185-0.591-0.035-0.811l-1.245-1.245c-0.154-0.154-0.371-0.206-0.567-0.159-0.617 0.682-1.158 1.449-1.608 2.284 0.020 0.036 0.044 0.071 0.072 0.103l1.186 1.364z"
     id="path6087" />
  <path
     class="path26"
     fill="#f7b202"
     d="M19.262 12.040l1.186 1.364c0.242 0.279 0.676 0.275 0.913-0.008l1.284-1.528c0.080-0.095 0.125-0.208 0.137-0.323-0.7-0.665-1.48-1.229-2.321-1.672l-1.198 1.378c-0.197 0.226-0.197 0.562 0 0.788z"
     id="path6089" />
  <path
     class="path27"
     fill="#f7b202"
     d="M11.24 25.352c-0.246-0.246-0.65-0.232-0.878 0.031l-1.225 1.409c-0.197 0.226-0.197 0.562 0 0.788l1.186 1.364c0.242 0.278 0.676 0.275 0.913-0.008l1.283-1.528c0.2-0.239 0.185-0.591-0.035-0.811l-1.245-1.245z"
     id="path6091" />
  <path
     class="path28"
     fill="#f7b202"
     d="M13.824 31.44l1.283-1.528c0.2-0.239 0.185-0.591-0.035-0.811l-1.245-1.245c-0.246-0.246-0.65-0.232-0.878 0.031l-1.225 1.409c-0.197 0.226-0.197 0.562 0 0.788l1.186 1.364c0.017 0.019 0.034 0.037 0.052 0.053 0.158 0.053 0.318 0.103 0.48 0.148 0.143-0.019 0.28-0.088 0.381-0.209z"
     id="path6093" />
  <path
     class="path29"
     fill="#f7b202"
     d="M10.226 29.43l-1.245-1.245c-0.212-0.212-0.54-0.23-0.772-0.065 0.622 0.773 1.335 1.454 2.121 2.020 0.124-0.229 0.088-0.52-0.103-0.711z"
     id="path6095" />
  <path
     class="path30"
     fill="#f7b202"
     d="M17.66 31.417l-1.245-1.245c-0.246-0.246-0.65-0.232-0.878 0.031l-1.225 1.409c-0.056 0.064-0.095 0.138-0.12 0.215 0.587 0.114 1.191 0.174 1.808 0.174 0.626 0 1.239-0.061 1.835-0.179-0.005-0.147-0.064-0.293-0.175-0.404z"
     id="path6097" />
  <path
     class="path31"
     fill="#f7b202"
     d="M23.299 28l-1.225 1.409c-0.13 0.149-0.173 0.347-0.132 0.529 0.768-0.592 1.461-1.295 2.060-2.088-0.235-0.108-0.523-0.056-0.704 0.151z"
     id="path6099" />
  <path
     class="path32"
     fill="#f7b202"
     d="M20.711 30.177l-0.887 1.020c0.631-0.276 1.232-0.619 1.795-1.020l-0.031-0.031c-0.246-0.246-0.65-0.232-0.878 0.031z"
     id="path6101" />
  <path
     class="path33"
     fill="#f7b202"
     d="M14.377 10.552l1.284-1.528c0.065-0.077 0.107-0.166 0.127-0.259-1.156 0.026-2.265 0.26-3.3 0.671l0.977 1.123c0.242 0.279 0.676 0.275 0.913-0.008z"
     id="path6103" />
  <path
     class="path34"
     fill="#f7b202"
     d="M16.542 9.658l1.186 1.364c0.242 0.278 0.675 0.275 0.913-0.008l1.207-1.437c-1.010-0.445-2.096-0.72-3.232-0.793l-0.074 0.086c-0.197 0.226-0.197 0.562 0 0.788z"
     id="path6105" />
  <path
     class="path35"
     fill="#f7b202"
     d="M6.413 18.382l1.284-1.528c0.2-0.239 0.185-0.591-0.035-0.811l-0.961-0.961c-0.492 1.065-0.839 2.226-1.015 3.451 0.24 0.119 0.543 0.069 0.728-0.151z"
     id="path6107" />
  <path
     class="path36"
     fill="#f7b202"
     d="M7.249 22.052c0.2-0.239 0.185-0.591-0.035-0.811l-1.245-1.245c-0.112-0.112-0.257-0.17-0.403-0.175-0.008 0.186-0.012 0.373-0.012 0.561 0 1.113 0.141 2.188 0.403 3.207 0.003-0.003 0.006-0.006 0.008-0.009l1.284-1.528z"
     id="path6109" />
  <path
     class="path37"
     fill="#f7b202"
     d="M24.759 17.215l1.186 1.364c0.108 0.124 0.253 0.192 0.403 0.204-0.14-1.134-0.427-2.215-0.839-3.219l-0.75 0.863c-0.197 0.226-0.197 0.562 0 0.788z"
     id="path6111" />
  <path
     class="path38"
     fill="#f7b202"
     d="M25.983 19.965l-1.225 1.409c-0.197 0.226-0.197 0.562 0 0.788l1.186 1.364c0.028 0.032 0.059 0.061 0.092 0.086 0.266-1.025 0.409-2.109 0.409-3.23 0-0.209-0.005-0.416-0.015-0.623-0.166 0.001-0.33 0.070-0.448 0.206z"
     id="path6113" />
  <path
     class="path39"
     fill="#000"
     opacity="0.2"
     d="M8.65 21.29c-1.080-5.573 2.765-10.039 5.296-12.301-4.786 1.062-8.393 5.758-8.393 11.393 0 6.417 4.677 11.619 10.446 11.619 2.828 0 5.392-1.252 7.272-3.282-6.939 2.093-13.432-1.282-14.623-7.428z"
     id="path6115" />
  <path
     class="path40"
     fill="#fff"
     opacity="0.4"
     d="M21.759 13.192c0 1.010-0.819 1.829-1.829 1.829s-1.829-0.819-1.829-1.829c0-1.010 0.819-1.829 1.829-1.829s1.829 0.819 1.829 1.829z"
     id="path6117" />
  <path
     class="path41"
     fill="#fff"
     opacity="0.4"
     d="M22.65 16.979c0 0.505-0.409 0.915-0.915 0.915s-0.915-0.409-0.915-0.915c0-0.505 0.409-0.915 0.915-0.915s0.915 0.409 0.915 0.915z"
     id="path6119" />
  <path
     class="path42"
     fill="#ccbe3b"
     d="M10.88 0.742c0 0 4.417-0.43 5.185 8.127 0-0-1.516-5.050-5.185-8.127z"
     id="path6121" />
  <path
     class="path43"
     fill="#ccbe3b"
     d="M10.88 7.708c0 0 1.394-3.674 5.185 1.161 0 0-3.228-3.297-5.185-1.161z"
     id="path6123" />
  <path
     class="path44"
     fill="#ccbe3b"
     d="M21.251 0.742c0 0-4.473-0.43-5.251 8.127-0-0 1.535-5.050 5.251-8.127z"
     id="path6125" />
  <path
     class="path45"
     fill="#ccbe3b"
     d="M21.251 7.708c0 0-1.411-3.674-5.251 1.161-0 0 3.269-3.297 5.251-1.161z"
     id="path6127" />
</svg>
