<?xml version="1.0" encoding="UTF-8" standalone="no"?>
<svg
   xmlns:dc="http://purl.org/dc/elements/1.1/"
   xmlns:cc="http://creativecommons.org/ns#"
   xmlns:rdf="http://www.w3.org/1999/02/22-rdf-syntax-ns#"
   xmlns:svg="http://www.w3.org/2000/svg"
   xmlns="http://www.w3.org/2000/svg"
   xmlns:sodipodi="http://sodipodi.sourceforge.net/DTD/sodipodi-0.dtd"
   xmlns:inkscape="http://www.inkscape.org/namespaces/inkscape"
   id="icon-strawberry"
   viewBox="0 0 32 32"
   version="1.1"
   sodipodi:docname="strawberry.svg"
   inkscape:version="0.92.3 (2405546, 2018-03-11)">
  <metadata
     id="metadata6700">
    <rdf:RDF>
      <cc:Work
         rdf:about="">
        <dc:format>image/svg+xml</dc:format>
        <dc:type
           rdf:resource="http://purl.org/dc/dcmitype/StillImage" />
        <dc:title>strawberry</dc:title>
      </cc:Work>
    </rdf:RDF>
  </metadata>
  <defs
     id="defs6698" />
  <sodipodi:namedview
     pagecolor="#ffffff"
     bordercolor="#666666"
     borderopacity="1"
     objecttolerance="10"
     gridtolerance="10"
     guidetolerance="10"
     inkscape:pageopacity="0"
     inkscape:pageshadow="2"
     inkscape:window-width="807"
     inkscape:window-height="480"
     id="namedview6696"
     showgrid="false"
     inkscape:zoom="7.375"
     inkscape:cx="16"
     inkscape:cy="16"
     inkscape:window-x="0"
     inkscape:window-y="27"
     inkscape:window-maximized="0"
     inkscape:current-layer="icon-strawberry" />
  <title
     id="title6593">strawberry</title>
  <path
     class="path1"
     fill="#cc1f3c"
     d="M26.801 11.756c-3.765-5.571-9.363-3.876-10.653-3.388-1.291-0.488-6.888-2.183-10.653 3.388-4.279 6.332 4.585 15.2 4.585 15.2s3.474 4.745 5.939 5.018l0 0.026c0.041 0.001 0.086-0.011 0.128-0.013 0.042 0.002 0.087 0.014 0.128 0.013l0-0.026c2.465-0.272 5.939-5.017 5.939-5.017s8.865-8.868 4.586-15.2z"
     id="path6595" />
  <path
     class="path2"
     fill="#f4bd34"
     d="M21.467 12.563v0c-0.259 0-0.47-0.21-0.47-0.47v-0.88c0-0.259 0.21-0.47 0.47-0.47v0c0.259 0 0.47 0.21 0.47 0.47v0.88c0 0.259-0.21 0.47-0.47 0.47z"
     id="path6597" />
  <path
     class="path3"
     fill="#f4bd34"
     d="M19.437 15.067v0c-0.259 0-0.47-0.21-0.47-0.47v-0.88c0-0.259 0.21-0.47 0.47-0.47v0c0.259 0 0.47 0.21 0.47 0.47v0.88c0 0.259-0.21 0.47-0.47 0.47z"
     id="path6599" />
  <path
     class="path4"
     fill="#f4bd34"
     d="M21.467 17.023v0c-0.259 0-0.47-0.21-0.47-0.47v-0.88c0-0.259 0.21-0.47 0.47-0.47v0c0.259 0 0.47 0.21 0.47 0.47v0.88c0 0.259-0.21 0.47-0.47 0.47z"
     id="path6601" />
  <path
     class="path5"
     fill="#f4bd34"
     d="M19.437 19.527v0c-0.259 0-0.47-0.21-0.47-0.47v-0.88c0-0.259 0.21-0.47 0.47-0.47v0c0.259 0 0.47 0.21 0.47 0.47v0.88c0 0.259-0.21 0.47-0.47 0.47z"
     id="path6603" />
  <path
     class="path6"
     fill="#f4bd34"
     d="M23.966 18.197v0c-0.259 0-0.47-0.21-0.47-0.47v-0.88c0-0.259 0.21-0.47 0.47-0.47v0c0.259 0 0.47 0.21 0.47 0.47v0.88c0 0.259-0.21 0.47-0.47 0.47z"
     id="path6605" />
  <path
     class="path7"
     fill="#f4bd34"
     d="M21.936 20.7v0c-0.259 0-0.47-0.21-0.47-0.47v-0.88c0-0.259 0.21-0.47 0.47-0.47v0c0.259 0 0.47 0.21 0.47 0.47v0.88c0 0.259-0.21 0.47-0.47 0.47z"
     id="path6607" />
  <path
     class="path8"
     fill="#f4bd34"
     d="M23.966 22.657v0c-0.259 0-0.47-0.21-0.47-0.47v-0.88c0-0.259 0.21-0.47 0.47-0.47v0c0.259 0 0.47 0.21 0.47 0.47v0.88c0 0.259-0.21 0.47-0.47 0.47z"
     id="path6609" />
  <path
     class="path9"
     fill="#f4bd34"
     d="M22.406 25.6v0c-0.259 0-0.47-0.21-0.47-0.47v-0.88c0-0.259 0.21-0.47 0.47-0.47v0c0.259 0 0.47 0.21 0.47 0.47v0.88c0 0.259-0.21 0.47-0.47 0.47z"
     id="path6611" />
  <path
     class="path10"
     fill="#f4bd34"
     d="M17.163 12.495v0c-0.259 0-0.47-0.21-0.47-0.47v-0.88c0-0.259 0.21-0.47 0.47-0.47v0c0.259 0 0.47 0.21 0.47 0.47v0.88c0 0.259-0.21 0.47-0.47 0.47z"
     id="path6613" />
  <path
     class="path11"
     fill="#f4bd34"
     d="M15.133 14.998v0c-0.259 0-0.47-0.21-0.47-0.47v-0.88c0-0.259 0.21-0.47 0.47-0.47v0c0.259 0 0.47 0.21 0.47 0.47v0.88c0 0.259-0.21 0.47-0.47 0.47z"
     id="path6615" />
  <path
     class="path12"
     fill="#f4bd34"
     d="M17.163 16.955v0c-0.259 0-0.47-0.21-0.47-0.47v-0.88c0-0.259 0.21-0.47 0.47-0.47v0c0.259 0 0.47 0.21 0.47 0.47v0.88c0 0.259-0.21 0.47-0.47 0.47z"
     id="path6617" />
  <path
     class="path13"
     fill="#f4bd34"
     d="M15.133 19.458v0c-0.259 0-0.47-0.21-0.47-0.47v-0.88c0-0.259 0.21-0.47 0.47-0.47v0c0.259 0 0.47 0.21 0.47 0.47v0.88c0 0.259-0.21 0.47-0.47 0.47z"
     id="path6619" />
  <path
     class="path14"
     fill="#f4bd34"
     d="M17.163 21.278v0c-0.259 0-0.47-0.21-0.47-0.47v-0.88c0-0.259 0.21-0.47 0.47-0.47v0c0.259 0 0.47 0.21 0.47 0.47v0.88c0 0.259-0.21 0.47-0.47 0.47z"
     id="path6621" />
  <path
     class="path15"
     fill="#f4bd34"
     d="M15.133 23.781v0c-0.259 0-0.47-0.21-0.47-0.47v-0.88c0-0.259 0.21-0.47 0.47-0.47v0c0.259 0 0.47 0.21 0.47 0.47v0.88c0 0.259-0.21 0.47-0.47 0.47z"
     id="path6623" />
  <path
     class="path16"
     fill="#f4bd34"
     d="M17.163 24.828v0c-0.259 0-0.47-0.21-0.47-0.47v-0.88c0-0.259 0.21-0.47 0.47-0.47v0c0.259 0 0.47 0.21 0.47 0.47v0.88c0 0.259-0.21 0.47-0.47 0.47z"
     id="path6625" />
  <path
     class="path17"
     fill="#f4bd34"
     d="M15.603 29.151v0c-0.259 0-0.47-0.21-0.47-0.47v-0.88c0-0.259 0.21-0.47 0.47-0.47v0c0.259 0 0.47 0.21 0.47 0.47v0.88c0 0.259-0.21 0.47-0.47 0.47z"
     id="path6627" />
  <path
     class="path18"
     fill="#f4bd34"
     d="M12.897 12.957v0c-0.259 0-0.47-0.21-0.47-0.47v-0.88c0-0.259 0.21-0.47 0.47-0.47v0c0.259 0 0.47 0.21 0.47 0.47v0.88c-0 0.259-0.21 0.47-0.47 0.47z"
     id="path6629" />
  <path
     class="path19"
     fill="#f4bd34"
     d="M10.867 15.46v0c-0.259 0-0.47-0.21-0.47-0.47v-0.88c0-0.259 0.21-0.47 0.47-0.47v0c0.259 0 0.47 0.21 0.47 0.47v0.88c0 0.259-0.21 0.47-0.47 0.47z"
     id="path6631" />
  <path
     class="path20"
     fill="#f4bd34"
     d="M12.897 17.417v0c-0.259 0-0.47-0.21-0.47-0.47v-0.88c0-0.259 0.21-0.47 0.47-0.47v0c0.259 0 0.47 0.21 0.47 0.47v0.88c-0 0.259-0.21 0.47-0.47 0.47z"
     id="path6633" />
  <path
     class="path21"
     fill="#f4bd34"
     d="M10.867 19.921v0c-0.259 0-0.47-0.21-0.47-0.47v-0.88c0-0.259 0.21-0.47 0.47-0.47v0c0.259 0 0.47 0.21 0.47 0.47v0.88c0 0.259-0.21 0.47-0.47 0.47z"
     id="path6635" />
  <path
     class="path22"
     fill="#f4bd34"
     d="M26.465 16.37v0c-0.259 0-0.47-0.21-0.47-0.47v-0.88c0-0.259 0.21-0.47 0.47-0.47v0c0.259 0 0.47 0.21 0.47 0.47v0.88c0 0.259-0.21 0.47-0.47 0.47z"
     id="path6637" />
  <path
     class="path23"
     fill="#f4bd34"
     d="M23.966 11.232v0c-0.259 0-0.47-0.21-0.47-0.47v-0.88c0-0.259 0.21-0.47 0.47-0.47v0c0.259 0 0.47 0.21 0.47 0.47v0.88c0 0.259-0.21 0.47-0.47 0.47z"
     id="path6639" />
  <path
     class="path24"
     fill="#f4bd34"
     d="M25.996 13.542v0c-0.259 0-0.47-0.21-0.47-0.47v-0.88c0-0.259 0.21-0.47 0.47-0.47v0c0.259 0 0.47 0.21 0.47 0.47v0.88c0 0.259-0.21 0.47-0.47 0.47z"
     id="path6641" />
  <path
     class="path25"
     fill="#f4bd34"
     d="M23.966 15.135v0c-0.259 0-0.47-0.21-0.47-0.47v-0.88c0-0.259 0.21-0.47 0.47-0.47v0c0.259 0 0.47 0.21 0.47 0.47v0.88c0 0.259-0.21 0.47-0.47 0.47z"
     id="path6643" />
  <path
     class="path26"
     fill="#f4bd34"
     d="M25.996 19.958v0c-0.259 0-0.47-0.21-0.47-0.47v-0.88c0-0.259 0.21-0.47 0.47-0.47v0c0.259 0 0.47 0.21 0.47 0.47v0.88c0 0.259-0.21 0.47-0.47 0.47z"
     id="path6645" />
  <path
     class="path27"
     fill="#f4bd34"
     d="M17.632 27.558v0c-0.259 0-0.47-0.21-0.47-0.47v-0.88c0-0.259 0.21-0.47 0.47-0.47v0c0.259 0 0.47 0.21 0.47 0.47v0.88c0 0.259-0.21 0.47-0.47 0.47z"
     id="path6647" />
  <path
     class="path28"
     fill="#f4bd34"
     d="M20.846 22.871v0c-0.259 0-0.47-0.21-0.47-0.47v-0.88c0-0.259 0.21-0.47 0.47-0.47v0c0.259 0 0.47 0.21 0.47 0.47v0.88c-0 0.259-0.21 0.47-0.47 0.47z"
     id="path6649" />
  <path
     class="path29"
     fill="#f4bd34"
     d="M15.133 10.676v0c-0.259 0-0.47-0.21-0.47-0.47v-0.88c0-0.259 0.21-0.47 0.47-0.47v0c0.259 0 0.47 0.21 0.47 0.47v0.88c0 0.259-0.21 0.47-0.47 0.47z"
     id="path6651" />
  <path
     class="path30"
     fill="#f4bd34"
     d="M12.897 22.598v0c-0.259 0-0.47-0.21-0.47-0.47v-0.88c0-0.259 0.21-0.47 0.47-0.47v0c0.259 0 0.47 0.21 0.47 0.47v0.88c-0 0.259-0.21 0.47-0.47 0.47z"
     id="path6653" />
  <path
     class="path31"
     fill="#f4bd34"
     d="M10.867 24.691v0c-0.259 0-0.47-0.21-0.47-0.47v-0.88c0-0.259 0.21-0.47 0.47-0.47v0c0.259 0 0.47 0.21 0.47 0.47v0.88c0 0.259-0.21 0.47-0.47 0.47z"
     id="path6655" />
  <path
     class="path32"
     fill="#f4bd34"
     d="M12.897 26.648v0c-0.259 0-0.47-0.21-0.47-0.47v-0.88c0-0.259 0.21-0.47 0.47-0.47v0c0.259 0 0.47 0.21 0.47 0.47v0.88c-0 0.259-0.21 0.47-0.47 0.47z"
     id="path6657" />
  <path
     class="path33"
     fill="#f4bd34"
     d="M19.831 10.676v0c-0.259 0-0.47-0.21-0.47-0.47v-0.88c0-0.259 0.21-0.47 0.47-0.47v0c0.259 0 0.47 0.21 0.47 0.47v0.88c0 0.259-0.21 0.47-0.47 0.47z"
     id="path6659" />
  <path
     class="path34"
     fill="#f4bd34"
     d="M8.935 13.026v0c-0.259 0-0.47-0.21-0.47-0.47v-0.88c0-0.259 0.21-0.47 0.47-0.47v0c0.259 0 0.47 0.21 0.47 0.47v0.88c0 0.259-0.21 0.47-0.47 0.47z"
     id="path6661" />
  <path
     class="path35"
     fill="#f4bd34"
     d="M6.905 15.529v0c-0.259 0-0.47-0.21-0.47-0.47v-0.88c0-0.259 0.21-0.47 0.47-0.47v0c0.259 0 0.47 0.21 0.47 0.47v0.88c0 0.259-0.21 0.47-0.47 0.47z"
     id="path6663" />
  <path
     class="path36"
     fill="#f4bd34"
     d="M8.935 17.486v0c-0.259 0-0.47-0.21-0.47-0.47v-0.88c0-0.259 0.21-0.47 0.47-0.47v0c0.259 0 0.47 0.21 0.47 0.47v0.88c0 0.259-0.21 0.47-0.47 0.47z"
     id="path6665" />
  <path
     class="path37"
     fill="#f4bd34"
     d="M6.905 19.989v0c-0.259 0-0.47-0.21-0.47-0.47v-0.88c0-0.259 0.21-0.47 0.47-0.47v0c0.259 0 0.47 0.21 0.47 0.47v0.88c0 0.259-0.21 0.47-0.47 0.47z"
     id="path6667" />
  <path
     class="path38"
     fill="#f4bd34"
     d="M8.935 22.188v0c-0.259 0-0.47-0.21-0.47-0.47v-0.88c0-0.259 0.21-0.47 0.47-0.47v0c0.259 0 0.47 0.21 0.47 0.47v0.88c0 0.259-0.21 0.47-0.47 0.47z"
     id="path6669" />
  <path
     class="path39"
     fill="#f4bd34"
     d="M13.649 30.589v0c-0.259 0-0.47-0.21-0.47-0.47v-0.88c0-0.259 0.21-0.47 0.47-0.47v0c0.259 0 0.47 0.21 0.47 0.47v0.88c0 0.259-0.21 0.47-0.47 0.47z"
     id="path6671" />
  <path
     class="path40"
     fill="#f4bd34"
     d="M18.967 23.781v0c-0.259 0-0.47-0.21-0.47-0.47v-0.88c0-0.259 0.21-0.47 0.47-0.47v0c0.259 0 0.47 0.21 0.47 0.47v0.88c0 0.259-0.21 0.47-0.47 0.47z"
     id="path6673" />
  <path
     class="path41"
     fill="#f4bd34"
     d="M10.867 10.676v0c-0.259 0-0.47-0.21-0.47-0.47v-0.88c0-0.259 0.21-0.47 0.47-0.47v0c0.259 0 0.47 0.21 0.47 0.47v0.88c0 0.259-0.21 0.47-0.47 0.47z"
     id="path6675" />
  <path
     class="path42"
     fill="#f4bd34"
     d="M16.148 31.987v0c-0.259 0-0.47-0.21-0.47-0.47v-0.88c0-0.259 0.21-0.47 0.47-0.47v0c0.259 0 0.47 0.21 0.47 0.47v0.88c0 0.26-0.21 0.47-0.47 0.47z"
     id="path6677" />
  <path
     class="path43"
     fill="#f4bd34"
     d="M18.967 30.061v0c-0.259 0-0.47-0.21-0.47-0.47v-0.88c0-0.259 0.21-0.47 0.47-0.47v0c0.259 0 0.47 0.21 0.47 0.47v0.88c0 0.259-0.21 0.47-0.47 0.47z"
     id="path6679" />
  <path
     class="path44"
     fill="#f4bd34"
     d="M20.376 27.088v0c-0.259 0-0.47-0.21-0.47-0.47v-0.88c0-0.259 0.21-0.47 0.47-0.47v0c0.259 0 0.47 0.21 0.47 0.47v0.88c0 0.259-0.21 0.47-0.47 0.47z"
     id="path6681" />
  <path
     class="path45"
     fill="#000"
     opacity="0.16"
     d="M8.693 15.585c0.242-7.168 7.455-7.217 7.455-7.217-1.291-0.488-6.888-2.183-10.653 3.388-4.279 6.332 4.585 15.2 4.585 15.2s3.474 4.745 5.939 5.018l0 0.026c0.041 0.001 0.086-0.011 0.128-0.013 0.042 0.002 0.087 0.014 0.128 0.013l0-0.026c0.988-0.109 2.137-0.937 3.161-1.889-6.084-0.34-10.94-8.714-10.744-14.5z"
     id="path6683" />
  <path
     class="path46"
     fill="#fff"
     opacity="0.4"
     d="M24.252 11.492c0 1.091-0.884 1.975-1.975 1.975s-1.975-0.884-1.975-1.975c0-1.091 0.884-1.975 1.975-1.975s1.975 0.884 1.975 1.975z"
     id="path6685" />
  <path
     class="path47"
     fill="#fff"
     opacity="0.4"
     d="M25.214 15.583c0 0.546-0.442 0.988-0.988 0.988s-0.988-0.442-0.988-0.988c0-0.546 0.442-0.988 0.988-0.988s0.988 0.442 0.988 0.988z"
     id="path6687" />
  <path
     class="path48"
     fill="#ada323"
     d="M16.148 8.368l0.893-7.361c0.065-0.536-0.353-1.008-0.893-1.008v0c-0.54 0-0.958 0.472-0.893 1.008l0.893 7.36z"
     id="path6689" />
  <path
     class="path49"
     fill="#ada323"
     d="M16.148 8.368c0 0 3.388-1.263 7.091 0.182s5.319-3.615 5.319-3.615-1.717 1.99-4.331 0.86c0 0-5.308-3.898-8.079 2.573z"
     id="path6691" />
  <path
     class="path50"
     fill="#ada323"
     d="M15.852 8.368c0 0-3.388-1.263-7.091 0.182s-5.319-3.615-5.319-3.615 1.717 1.99 4.331 0.86c-0 0 5.308-3.898 8.079 2.573z"
     id="path6693" />
</svg>
