<?xml version="1.0" encoding="UTF-8" standalone="no"?>
<svg
   xmlns:dc="http://purl.org/dc/elements/1.1/"
   xmlns:cc="http://creativecommons.org/ns#"
   xmlns:rdf="http://www.w3.org/1999/02/22-rdf-syntax-ns#"
   xmlns:svg="http://www.w3.org/2000/svg"
   xmlns="http://www.w3.org/2000/svg"
   xmlns:sodipodi="http://sodipodi.sourceforge.net/DTD/sodipodi-0.dtd"
   xmlns:inkscape="http://www.inkscape.org/namespaces/inkscape"
   id="icon-guava"
   viewBox="0 0 32 32"
   version="1.1"
   sodipodi:docname="guava.svg"
   inkscape:version="0.92.3 (2405546, 2018-03-11)">
  <metadata
     id="metadata4898">
    <rdf:RDF>
      <cc:Work
         rdf:about="">
        <dc:format>image/svg+xml</dc:format>
        <dc:type
           rdf:resource="http://purl.org/dc/dcmitype/StillImage" />
        <dc:title>guava</dc:title>
      </cc:Work>
    </rdf:RDF>
  </metadata>
  <defs
     id="defs4896" />
  <sodipodi:namedview
     pagecolor="#ffffff"
     bordercolor="#666666"
     borderopacity="1"
     objecttolerance="10"
     gridtolerance="10"
     guidetolerance="10"
     inkscape:pageopacity="0"
     inkscape:pageshadow="2"
     inkscape:window-width="807"
     inkscape:window-height="480"
     id="namedview4894"
     showgrid="false"
     inkscape:zoom="7.375"
     inkscape:cx="16"
     inkscape:cy="16"
     inkscape:window-x="0"
     inkscape:window-y="27"
     inkscape:window-maximized="0"
     inkscape:current-layer="icon-guava" />
  <title
     id="title4875">guava</title>
  <path
     class="path1"
     fill="#ada323"
     d="M32 16c0 8.837-7.163 16-16 16s-16-7.163-16-16c0-8.837 7.163-16 16-16s16 7.163 16 16z"
     id="path4877" />
  <path
     class="path2"
     fill="#bc153a"
     d="M29.503 16c0 7.458-6.046 13.503-13.503 13.503s-13.503-6.046-13.503-13.503c0-7.458 6.046-13.503 13.503-13.503s13.503 6.046 13.503 13.503z"
     id="path4879" />
  <path
     class="path3"
     fill="#cc1f3c"
     d="M28.591 16c0 6.954-5.637 12.591-12.591 12.591s-12.591-5.637-12.591-12.591c0-6.954 5.637-12.591 12.591-12.591s12.591 5.637 12.591 12.591z"
     id="path4881" />
  <path
     class="path4"
     fill="#fff"
     opacity="0.3"
     d="M25.871 6.243c0 1.399-1.134 2.532-2.532 2.532s-2.532-1.134-2.532-2.532c0-1.399 1.134-2.532 2.532-2.532s2.532 1.134 2.532 2.532z"
     id="path4883" />
  <path
     class="path5"
     fill="#fff"
     opacity="0.3"
     d="M28.649 10.413c0 0.699-0.567 1.266-1.266 1.266s-1.266-0.567-1.266-1.266c0-0.699 0.567-1.266 1.266-1.266s1.266 0.567 1.266 1.266z"
     id="path4885" />
  <path
     class="path6"
     fill="#000"
     opacity="0.2"
     d="M2.757 18.649c-1.252-7.441 3.134-13.542 7.275-17.494-5.88 2.366-10.032 8.119-10.032 14.845 0 8.837 7.163 16 16 16 2.748 0 5.333-0.694 7.593-1.914-9.162 1.638-19.229-1.891-20.836-11.437z"
     id="path4887" />
  <path
     class="path7"
     fill="#af143c"
     d="M24.664 14.010c-0.835-3.887-2.224-3.817-3.116-3.262-0.448 0.279-0.78 0.707-1.014 1.181-0.569 1.155-1.641 1.537-2.534 1.639-0.172-0.93-0.155-2.26 0.972-3.182 0.412-0.338 0.76-0.757 0.932-1.261 0.339-0.994 0.092-2.359-3.878-2.304-3.973-0.149-4.248 1.214-3.93 2.216 0.16 0.503 0.493 0.931 0.895 1.273 1.077 0.92 1.097 2.197 0.922 3.117-0.893-0.079-1.967-0.431-2.567-1.559-0.25-0.471-0.593-0.894-1.054-1.162-0.908-0.528-2.295-0.554-3.020 3.35-0.925 3.867 0.357 4.404 1.401 4.289 0.525-0.058 1.009-0.301 1.424-0.627 1.049-0.825 2.225-0.667 3.084-0.351-0.562 0.624-1.393 1.181-2.536 1.073-0.531-0.050-1.072 0.003-1.55 0.24-0.94 0.467-1.726 1.611 1.134 4.366 2.717 2.902 3.872 2.127 4.351 1.192 0.241-0.47 0.305-1.008 0.261-1.534-0.091-1.088 0.415-1.883 1.005-2.435 0.612 0.561 1.151 1.384 1.045 2.509-0.050 0.531 0.003 1.073 0.24 1.55 0.467 0.94 1.611 1.726 4.366-1.134 2.902-2.717 2.127-3.872 1.192-4.351-0.47-0.241-1.008-0.305-1.534-0.261-1.104 0.092-1.908-0.43-2.46-1.032 0.858-0.377 2.107-0.644 3.242 0.193 0.429 0.316 0.921 0.55 1.452 0.593 1.047 0.084 2.309-0.492 1.277-4.326z"
     id="path4889" />
  <path
     class="path8"
     fill="#cc1f3c"
     d="M23.889 14.284c-0.536-2.834-1.482-2.796-2.233-2.433-0.378 0.183-0.706 0.895-0.926 1.196-0.471 0.647-1.775 1.122-2.663 1.312-0.244-0.308-0.556-0.559-0.912-0.733l0.093-0.005c-0.068-0.729-0.113-2.587 0.511-3.257 0.255-0.274 0.782-0.869 1.020-1.219 0.617-0.906-0.387-1.715-2.841-1.67-2.884-0.073-3.045 0.859-2.849 1.67 0.098 0.408 0.725 0.879 0.973 1.157 0.641 0.717 0.785 2.556 0.697 3.359-0.337 0.178-0.629 0.428-0.861 0.727-0.883-0.165-2.314-0.656-2.812-1.341-0.219-0.301-0.548-1.013-0.926-1.196-0.752-0.363-1.697-0.402-2.233 2.433-0.561 2.389 0.018 3.542 1.034 3.129 0.392-0.159 1.085-0.549 1.406-0.741 0.724-0.432 2.314-0.096 3.106 0.132 0.091 0.283 0.229 0.545 0.404 0.778-0.627 0.656-1.691 1.502-2.478 1.568-0.371 0.031-1.15-0.058-1.503 0.17-0.701 0.454-1.225 1.242 0.919 3.172 1.75 1.72 3.036 1.823 3.211 0.741 0.067-0.417 0.094-1.212 0.097-1.586 0.007-0.848 1.134-2.042 1.737-2.596 0.6 0.586 1.639 1.762 1.627 2.588-0.005 0.374 0.003 1.17 0.061 1.588 0.15 1.086 1.438 1.012 3.227-0.667 2.188-1.88 1.682-2.68 0.992-3.15-0.347-0.236-1.128-0.165-1.498-0.205-0.723-0.077-1.667-0.822-2.289-1.463 0.248-0.283 0.438-0.618 0.548-0.989 0.834-0.221 2.248-0.48 2.919-0.080 0.322 0.191 1.015 0.581 1.406 0.741 1.015 0.413 1.594-0.74 1.033-3.129zM15.707 18.629c0.071 0.007 0.143 0.011 0.215 0.013l-0.104 0.104-0.111-0.117z"
     id="path4891" />
</svg>
