<?xml version="1.0" encoding="UTF-8" standalone="no"?>
<svg
   xmlns:dc="http://purl.org/dc/elements/1.1/"
   xmlns:cc="http://creativecommons.org/ns#"
   xmlns:rdf="http://www.w3.org/1999/02/22-rdf-syntax-ns#"
   xmlns:svg="http://www.w3.org/2000/svg"
   xmlns="http://www.w3.org/2000/svg"
   xmlns:sodipodi="http://sodipodi.sourceforge.net/DTD/sodipodi-0.dtd"
   xmlns:inkscape="http://www.inkscape.org/namespaces/inkscape"
   id="icon-papaya"
   viewBox="0 0 32 32"
   version="1.1"
   sodipodi:docname="papaya.svg"
   inkscape:version="0.92.3 (2405546, 2018-03-11)">
  <metadata
     id="metadata5655">
    <rdf:RDF>
      <cc:Work
         rdf:about="">
        <dc:format>image/svg+xml</dc:format>
        <dc:type
           rdf:resource="http://purl.org/dc/dcmitype/StillImage" />
        <dc:title>papaya</dc:title>
      </cc:Work>
    </rdf:RDF>
  </metadata>
  <defs
     id="defs5653" />
  <sodipodi:namedview
     pagecolor="#ffffff"
     bordercolor="#666666"
     borderopacity="1"
     objecttolerance="10"
     gridtolerance="10"
     guidetolerance="10"
     inkscape:pageopacity="0"
     inkscape:pageshadow="2"
     inkscape:window-width="807"
     inkscape:window-height="480"
     id="namedview5651"
     showgrid="false"
     inkscape:zoom="7.375"
     inkscape:cx="16"
     inkscape:cy="16"
     inkscape:window-x="0"
     inkscape:window-y="27"
     inkscape:window-maximized="0"
     inkscape:current-layer="icon-papaya" />
  <title
     id="title5592">papaya</title>
  <path
     class="path1"
     fill="#dec33d"
     d="M25.738 13.259c-0.689-1.412-1.701-2.63-2.888-3.66-0.912-0.79-2.201-2.39-2.858-5.411-1.082-4.976-3.98-4.134-3.98-4.134s-2.898-0.842-3.98 4.135c-0.657 3.021-1.946 4.621-2.858 5.411-1.187 1.029-2.199 2.248-2.888 3.66-1.308 2.679-2.546 6.945-0.858 11.874 0 0 4.051 10.37 10.584 5.566 6.533 4.804 10.584-5.566 10.584-5.566 1.688-4.929 0.45-9.195-0.858-11.874z"
     id="path5594" />
  <path
     class="path2"
     fill="#fbd960"
     d="M21.847 10.723c-0.803-0.728-2.293-2.626-2.871-5.411-0.953-4.587-2.964-4.018-2.964-4.018s-0.003-0.001-0.008-0.002h-0.056c-0.005 0.001-0.008 0.002-0.008 0.002s-2.012-0.569-2.964 4.018c-0.578 2.785-2.069 4.683-2.871 5.411-0.909 0.825-4.45 3.892-3.983 10.487 0.164 2.313 0.89 4.567 2.233 6.457 1.578 2.223 4.182 4.287 7.586 1.388v0 0.054c0.012-0.009 0.024-0.018 0.037-0.027 0.012 0.009 0.024 0.018 0.037 0.027v-0.054c3.404 2.899 6.007 0.835 7.586-1.388 1.342-1.89 2.069-4.144 2.233-6.457 0.467-6.595-3.074-9.662-3.983-10.487z"
     id="path5596" />
  <path
     class="path3"
     fill="#f27b2c"
     d="M20.908 11.65c-0.698-0.681-2.537-2.653-2.816-5.289-0.442-4.181-1.731-4.094-2.067-4.175v-0.006c-0.003 0.001-0.008 0.002-0.012 0.003-0.002-0-0.005-0.001-0.007-0.002v0.004c-0.336 0.080-1.668-0.005-2.067 4.175-0.252 2.638-2.118 4.608-2.816 5.289-0.791 0.771-3.959 2.969-3.553 9.132 0.143 2.161 0.775 4.267 1.943 6.034 1.356 2.051 3.83 3.332 6.498 0.971 2.633 2.361 5.149 1.081 6.506-0.97 1.168-1.767 1.801-3.872 1.943-6.034 0.407-6.163-2.761-8.361-3.552-9.132z"
     id="path5598" />
  <path
     class="path4"
     fill="#fbd960"
     d="M17.32 8.735c-0.994-3.976-0.531-7.344-0.531-7.344l-0.786-0.099-0.010 8.199-0.010-8.219-0.786 0.1c0 0 0.463 3.369-0.53 7.344-0.982 3.928-6.1 7.938 0.813 15.781 0.14 0.159 0.357 0.234 0.569 0.241l0.254-0.144c0.254 0.008 0.247 0.048 0.415-0.143 6.83-7.753 1.58-11.796 0.6-15.715z"
     id="path5600" />
  <path
     class="path5"
     fill="#eaab57"
     d="M16.046 23.506c0 0 6.767-5.798-0.071-13.666 0 0-6.413 6.814 0.071 13.666z"
     id="path5602" />
  <path
     class="path6"
     fill="#a05f32"
     d="M15.305 13.333c0 0.364-0.296 0.66-0.66 0.66s-0.66-0.296-0.66-0.66c0-0.364 0.296-0.66 0.66-0.66s0.66 0.296 0.66 0.66z"
     id="path5604" />
  <path
     class="path7"
     fill="#a05f32"
     d="M16.671 13.333c0 0.364-0.296 0.66-0.66 0.66s-0.66-0.296-0.66-0.66c0-0.364 0.296-0.66 0.66-0.66s0.66 0.296 0.66 0.66z"
     id="path5606" />
  <path
     class="path8"
     fill="#a05f32"
     d="M15.965 16.015c0 0.364-0.296 0.66-0.66 0.66s-0.66-0.296-0.66-0.66c0-0.364 0.296-0.66 0.66-0.66s0.66 0.296 0.66 0.66z"
     id="path5608" />
  <path
     class="path9"
     fill="#a05f32"
     d="M17.449 14.661c0 0.364-0.295 0.66-0.66 0.66s-0.66-0.295-0.66-0.66c0-0.364 0.295-0.66 0.66-0.66s0.66 0.295 0.66 0.66z"
     id="path5610" />
  <path
     class="path10"
     fill="#a05f32"
     d="M18.77 14.581c0 0.364-0.296 0.66-0.66 0.66s-0.66-0.296-0.66-0.66c0-0.364 0.296-0.66 0.66-0.66s0.66 0.296 0.66 0.66z"
     id="path5612" />
  <path
     class="path11"
     fill="#a05f32"
     d="M17.449 11.978c0 0.364-0.295 0.66-0.66 0.66s-0.66-0.295-0.66-0.66c0-0.364 0.295-0.66 0.66-0.66s0.66 0.295 0.66 0.66z"
     id="path5614" />
  <path
     class="path12"
     fill="#a05f32"
     d="M14.892 14.665c0 0.364-0.296 0.66-0.66 0.66s-0.66-0.296-0.66-0.66c0-0.364 0.296-0.66 0.66-0.66s0.66 0.296 0.66 0.66z"
     id="path5616" />
  <path
     class="path13"
     fill="#a05f32"
     d="M14.645 17.349c0 0.364-0.296 0.66-0.66 0.66s-0.66-0.296-0.66-0.66c0-0.364 0.296-0.66 0.66-0.66s0.66 0.296 0.66 0.66z"
     id="path5618" />
  <path
     class="path14"
     fill="#a05f32"
     d="M14.892 18.703c0 0.364-0.296 0.66-0.66 0.66s-0.66-0.296-0.66-0.66c0-0.364 0.296-0.66 0.66-0.66s0.66 0.296 0.66 0.66z"
     id="path5620" />
  <path
     class="path15"
     fill="#a05f32"
     d="M17.449 17.349c0 0.364-0.295 0.66-0.66 0.66s-0.66-0.295-0.66-0.66c0-0.364 0.295-0.66 0.66-0.66s0.66 0.295 0.66 0.66z"
     id="path5622" />
  <path
     class="path16"
     fill="#a05f32"
     d="M16.749 20.023c0 0.364-0.296 0.66-0.66 0.66s-0.66-0.296-0.66-0.66c0-0.364 0.296-0.66 0.66-0.66s0.66 0.296 0.66 0.66z"
     id="path5624" />
  <path
     class="path17"
     fill="#a05f32"
     d="M17.331 16.015c0 0.364-0.295 0.66-0.66 0.66s-0.66-0.295-0.66-0.66c0-0.364 0.295-0.66 0.66-0.66s0.66 0.295 0.66 0.66z"
     id="path5626" />
  <path
     class="path18"
     fill="#a05f32"
     d="M16.671 10.845c0 0.364-0.296 0.66-0.66 0.66s-0.66-0.296-0.66-0.66c0-0.364 0.296-0.66 0.66-0.66s0.66 0.296 0.66 0.66z"
     id="path5628" />
  <path
     class="path19"
     fill="#a05f32"
     d="M16.212 18.703c0 0.364-0.296 0.66-0.66 0.66s-0.66-0.296-0.66-0.66c0-0.364 0.296-0.66 0.66-0.66s0.66 0.296 0.66 0.66z"
     id="path5630" />
  <path
     class="path20"
     fill="#a05f32"
     d="M18.77 17.349c0 0.364-0.296 0.66-0.66 0.66s-0.66-0.296-0.66-0.66c0-0.364 0.296-0.66 0.66-0.66s0.66 0.296 0.66 0.66z"
     id="path5632" />
  <path
     class="path21"
     fill="#a05f32"
     d="M18.77 18.703c0 0.364-0.296 0.66-0.66 0.66s-0.66-0.296-0.66-0.66c0-0.364 0.296-0.66 0.66-0.66s0.66 0.296 0.66 0.66z"
     id="path5634" />
  <path
     class="path22"
     fill="#a05f32"
     d="M16.872 22.304c0 0.364-0.296 0.66-0.66 0.66s-0.66-0.296-0.66-0.66c0-0.364 0.296-0.66 0.66-0.66s0.66 0.296 0.66 0.66z"
     id="path5636" />
  <path
     class="path23"
     fill="#a05f32"
     d="M18.11 20.023c0 0.364-0.296 0.66-0.66 0.66s-0.66-0.296-0.66-0.66c0-0.364 0.296-0.66 0.66-0.66s0.66 0.296 0.66 0.66z"
     id="path5638" />
  <path
     class="path24"
     fill="#a05f32"
     d="M16.089 21.187c0 0.364-0.296 0.66-0.66 0.66s-0.66-0.296-0.66-0.66c0-0.364 0.296-0.66 0.66-0.66s0.66 0.296 0.66 0.66z"
     id="path5640" />
  <path
     class="path25"
     fill="#000"
     opacity="0.1"
     d="M9.502 10.691c0 0-6.001 5.38-2.153 13.915 2.203 4.886 6.607 6.165 11.026 5.85-3.536-0.281-6.793-1.868-8.589-5.85-3.848-8.535 2.153-13.915 2.153-13.915s3.147-1.656 3.147-5.963c0-2.296 0.847-3.786 1.638-4.682-0.44-0.046-0.738 0.040-0.738 0.040s-1.094-0.316-2.188 0.593c-0.616 0.914-1.15 2.228-1.15 4.049 0 4.307-3.147 5.964-3.147 5.964z"
     id="path5642" />
  <path
     class="path26"
     fill="#000"
     opacity="0.2"
     d="M18.375 30.455c-4.42 0.315-8.824-0.964-11.026-5.85-3.848-8.535 2.153-13.915 2.153-13.915s3.147-1.656 3.147-5.963c0-1.822 0.535-3.135 1.15-4.049-0.687 0.571-1.375 1.622-1.792 3.541-0.657 3.021-1.946 4.621-2.858 5.411-1.187 1.029-2.199 2.248-2.888 3.66-1.308 2.679-2.546 6.946-0.858 11.874 0 0 4.051 10.37 10.584 5.567 3.067 2.255 5.588 1.166 7.398-0.625-1.651 0.328-3.361 0.481-5.011 0.35z"
     id="path5644" />
  <path
     class="path27"
     fill="#fff"
     opacity="0.3"
     d="M24.984 13.237c0 0.738-0.599 1.337-1.337 1.337s-1.337-0.599-1.337-1.337c0-0.738 0.599-1.337 1.337-1.337s1.337 0.599 1.337 1.337z"
     id="path5646" />
  <path
     class="path28"
     fill="#fff"
     opacity="0.3"
     d="M25.9 16.111c0 0.369-0.299 0.669-0.669 0.669s-0.669-0.299-0.669-0.669c0-0.369 0.299-0.669 0.669-0.669s0.669 0.299 0.669 0.669z"
     id="path5648" />
</svg>
